<?xml version="1.0" standalone="no"?>
 <!DOCTYPE svg PUBLIC "-//W3C//DTD SVG 1.1//EN" 
 "http://www.w3.org/Graphics/SVG/1.1/DTD/svg11.dtd"> 
<svg
  xmlns:svg="http://www.w3.org/2000/svg"
  xmlns="http://www.w3.org/2000/svg"
  xmlns:xlink="http://www.w3.org/1999/xlink"
  version="1.1"
  width="109.9820mm" height="109.9820mm" viewBox="0.0000 0.0000 109.9820 109.9820">
<title>SVG Image created as chandelierLEDPCB-Edge_Cuts.svg date 2023/04/22 00:44:24 </title>
  <desc>Image generated by PCBNEW </desc>
<g style="fill:#000000; fill-opacity:1.0000;stroke:#000000; stroke-opacity:1.0000;
stroke-linecap:round; stroke-linejoin:round;"
 transform="translate(0 0) scale(1 1)">
</g>
<g style="fill:#000000; fill-opacity:0.0; 
stroke:#000000; stroke-width:0.0000; stroke-opacity:1; 
stroke-linecap:round; stroke-linejoin:round;">
</g>
<g style="fill:#D0D2CD; fill-opacity:0.0; 
stroke:#D0D2CD; stroke-width:0.0000; stroke-opacity:1; 
stroke-linecap:round; stroke-linejoin:round;">
</g>
<g style="fill:#D0D2CD; fill-opacity:0.0; 
stroke:#D0D2CD; stroke-width:0.2000; stroke-opacity:1; 
stroke-linecap:round; stroke-linejoin:round;">
<path d="M32.5127 101.4149 A3.2500 3.2500 0.0 0 0 37.9290 103.6584" />
<path d="M101.2612 77.4252 A3.2500 3.2500 0.0 0 0 103.5047 72.0091" />
<path d="M40.7797 103.0129 A3.0000 3.0000 0.0 0 0 37.9290 103.6584" />
<path d="M101.2613 77.4253 A2.9999 2.9999 0.0 0 0 98.7891 78.9846" />
<path d="M77.2716 8.6768 A3.0001 3.0001 0.0 0 0 78.8310 11.1490" />
<path d="M32.5127 101.4149 A3.0000 3.0000 0.0 0 0 30.9534 98.9427" />
<path d="M69.0047 7.0788 A3.0000 3.0000 0.0 0 0 71.8554 6.4333" />
<path d="M6.9252 40.9333 A3.0000 3.0000 0.0 0 0 6.2796 38.0826" />
<path d="M77.2716 8.6768 A3.2500 3.2500 0.0 0 0 71.8554 6.4333" />
<path d="M8.5231 32.6664 A3.2500 3.2500 0.0 0 0 6.2796 38.0826" />
<path d="M6.9251 40.9333 A50.0000 50.0000 0.0 0 0 30.9534 98.9427" />
<path d="M8.5231 32.6664 A3.0000 3.0000 0.0 0 0 10.9953 31.1071" />
<path d="M102.8592 69.1583 A50.0000 50.0000 0.0 0 0 78.8310 11.1490" />
<path d="M40.7797 103.0129 A50.0000 50.0000 0.0 0 0 98.7891 78.9846" />
<path d="M102.8592 69.1584 A3.0000 3.0000 0.0 0 0 103.5047 72.0091" />
<path d="M69.0047 7.0788 A50.0000 50.0000 0.0 0 0 10.9953 31.1071" />
<g >
</g>
<g >
</g>
<g >
</g>
<g >
</g>
<g >
</g>
<g >
</g>
<g >
</g>
<g >
</g>
<g >
</g>
<g >
</g>
<g >
</g>
<g >
</g>
<g >
</g>
<g >
</g>
<g >
</g>
<g >
</g>
<g >
</g>
<g >
</g>
<g >
</g>
<g >
</g>
<g >
</g>
<g >
</g>
<g >
</g>
<g >
</g>
<g >
</g>
<g >
</g>
<g >
</g>
<g >
</g>
<g >
</g>
<g >
</g>
<g >
</g>
<g >
</g>
<g >
</g>
<g >
</g>
<g >
</g>
<g >
</g>
<g >
</g>
<g >
</g>
<g >
</g>
<g >
</g>
<g >
</g>
<g >
</g>
<g >
</g>
<g >
</g>
<g >
</g>
<g >
</g>
<g >
</g>
<g >
</g>
<g >
</g>
<g >
</g>
<g >
</g>
<g >
</g>
<g >
</g>
<g >
</g>
<g >
</g>
<g >
</g>
<g >
</g>
<g >
</g>
<g >
</g>
<g >
</g>
<g >
</g>
<g >
</g>
<g >
</g>
<g >
</g>
<g >
</g>
<g >
</g>
<g >
</g>
<g >
</g>
<g >
</g>
<g >
</g>
<g >
</g>
<g >
</g>
<g >
</g>
<g >
</g>
<g >
</g>
<g >
</g>
<g >
</g>
<g >
</g>
<g >
</g>
<g >
</g>
<g >
</g>
<g >
</g>
<g >
</g>
<g >
</g>
<g >
</g>
<g >
</g>
<g >
</g>
<g >
</g>
<g >
</g>
<g >
</g>
<g >
</g>
<g >
</g>
<g >
</g>
<g >
</g>
<g >
</g>
<g >
</g>
<g >
</g>
<g >
</g>
<g >
</g>
<g >
</g>
<g >
</g>
<g >
</g>
<g >
</g>
<g >
</g>
<g >
</g>
<g >
</g>
<g >
</g>
<g >
</g>
<g >
</g>
<g >
</g>
<g >
</g>
<g >
</g>
<g >
</g>
<g >
</g>
<g >
</g>
<g >
</g>
<g >
</g>
<g >
</g>
<g >
</g>
<g >
</g>
<g >
</g>
<g >
</g>
<g >
</g>
<g >
</g>
<g >
</g>
</g> 
</svg>
