<?xml version="1.0" encoding="utf-8"?>
<!-- Generator: Adobe Illustrator 26.5.0, SVG Export Plug-In . SVG Version: 6.00 Build 0)  -->
<svg version="1.1" xmlns="http://www.w3.org/2000/svg" xmlns:xlink="http://www.w3.org/1999/xlink" x="0px" y="0px"
	 viewBox="0 0 1296 864" style="enable-background:new 0 0 1296 864;" xml:space="preserve">
<style type="text/css">
	.st0{display:none;}
	.st1{display:inline;}
	.st2{fill-rule:evenodd;clip-rule:evenodd;fill-opacity:0.9;}
	.st3{fill-opacity:0.9;}
	
		.st4{display:inline;fill:none;stroke:#FF0000;stroke-width:7.200000e-02;stroke-linecap:round;stroke-linejoin:round;stroke-miterlimit:11.3386;}
	.st5{font-family:'MyriadPro-Regular';}
	.st6{font-size:12px;}
	.st7{fill:none;stroke:#FF0000;stroke-width:7.200000e-02;stroke-linecap:round;stroke-linejoin:round;stroke-miterlimit:11.3386;}
</style>
<g id="Stencil" xmlns:svg="http://www.w3.org/2000/svg" class="st0">
	<g class="st1">
		<g>
			<path class="st2" d="M141.2,123.3l0.1,0.2l0,0.2l-0.1,0.2l-0.2,0.2l-0.9,0.7l-0.2,0.1l-0.2,0l-0.2-0.1l-0.2-0.2l-0.9-1.3
				l-0.1-0.2l0-0.2l0.1-0.2l0.1-0.2l0.9-0.7l0.2-0.1l0.2,0l0.2,0.1l0.2,0.1L141.2,123.3z"/>
			<path class="st2" d="M137.4,126.1l0.1,0.2l0,0.2l-0.1,0.2l-0.1,0.2l-0.9,0.7l-0.2,0.1l-0.2,0l-0.2-0.1l-0.2-0.1l-0.9-1.3
				l-0.1-0.2l0-0.2l0.1-0.2l0.2-0.2l0.9-0.7l0.2-0.1l0.2,0l0.2,0.1l0.2,0.2L137.4,126.1z"/>
		</g>
		<g>
			<path class="st2" d="M159.9,110.9l-0.2,0l-0.2-0.1l-0.1-0.1l-0.1-0.2l-0.5-3.3l0-0.2l0.1-0.2l0.1-0.1l0.2-0.1l0.8-0.1l0.2,0
				l0.2,0.1l0.1,0.1l0.1,0.2l0.5,3.3l0,0.2l-0.1,0.2l-0.1,0.1l-0.2,0.1L159.9,110.9z"/>
			<path class="st2" d="M165.3,110.1l-0.2,0l-0.2-0.1l-0.1-0.1l-0.1-0.2l-0.5-3.3l0-0.2l0.1-0.2l0.1-0.1l0.2-0.1l0.8-0.1l0.2,0
				l0.2,0.1l0.1,0.1l0.1,0.2l0.5,3.3l0,0.2l-0.1,0.2l-0.1,0.1l-0.2,0.1L165.3,110.1z"/>
			<path class="st2" d="M161.8,105.2l-0.2,0l-0.2-0.1l-0.1-0.1l-0.1-0.2l-0.5-3.3l0-0.2l0.1-0.2l0.1-0.1l0.2-0.1l0.8-0.1l0.2,0
				l0.2,0.1l0.1,0.1l0.1,0.2l0.5,3.3l0,0.2l-0.1,0.2l-0.1,0.1l-0.2,0.1L161.8,105.2z"/>
		</g>
		<g>
			<path class="st2" d="M215.5,126l-0.1-0.1l0-0.2l0-0.2l0.1-0.1l2.4-2.4l0.1-0.1l0.2,0l0.2,0l0.1,0.1l0.6,0.6l0.1,0.1l0,0.2l0,0.2
				l-0.1,0.1l-2.4,2.4l-0.1,0.1l-0.2,0l-0.2,0l-0.1-0.1L215.5,126z"/>
			<path class="st2" d="M219.3,129.8l-0.1-0.1l0-0.2l0-0.2l0.1-0.1l2.4-2.4l0.1-0.1l0.2,0l0.2,0l0.1,0.1l0.6,0.6l0.1,0.1l0,0.2
				l0,0.2l-0.1,0.1l-2.4,2.4l-0.1,0.1l-0.2,0l-0.2,0l-0.1-0.1L219.3,129.8z"/>
			<path class="st2" d="M221.1,124.1L221,124l0-0.2l0-0.2l0.1-0.1l2.4-2.4l0.1-0.1l0.2,0l0.2,0l0.1,0.1l0.6,0.6l0.1,0.1l0,0.2l0,0.2
				l-0.1,0.1l-2.4,2.4l-0.1,0.1l-0.2,0l-0.2,0l-0.1-0.1L221.1,124.1z"/>
		</g>
		<g>
			<path class="st2" d="M178.7,231.5l0-0.2l0.1-0.2l0.2-0.1l0.2-0.1l1.1-0.2l0.2,0l0.2,0.1l0.1,0.2l0.1,0.2l0.2,1.5l0,0.2l-0.1,0.2
				l-0.2,0.2l-0.2,0.1l-1.1,0.2l-0.2,0l-0.2-0.1l-0.2-0.2l-0.1-0.2L178.7,231.5z"/>
			<path class="st2" d="M183.3,230.7l0-0.2l0.1-0.2l0.2-0.2l0.2-0.1l1.1-0.2l0.2,0l0.2,0.1l0.2,0.2l0.1,0.2l0.2,1.5l0,0.2l-0.1,0.2
				l-0.2,0.2l-0.2,0.1l-1.1,0.2l-0.2,0l-0.2-0.1l-0.2-0.2l-0.1-0.2L183.3,230.7z"/>
		</g>
		<g>
			<path class="st2" d="M204.6,222.5l-0.1-0.2l0-0.2l0.1-0.2l0.2-0.2l0.9-0.7l0.2-0.1l0.2,0l0.2,0.1l0.2,0.2l0.9,1.3l0.1,0.2l0,0.2
				l-0.1,0.2l-0.1,0.2l-0.9,0.7l-0.2,0.1l-0.2,0l-0.2-0.1l-0.2-0.1L204.6,222.5z"/>
			<path class="st2" d="M208.4,219.7l-0.1-0.2l0-0.2l0.1-0.2l0.1-0.2l0.9-0.7l0.2-0.1l0.2,0l0.2,0.1l0.2,0.1l0.9,1.3l0.1,0.2l0,0.2
				l-0.1,0.2l-0.2,0.2l-0.9,0.7l-0.2,0.1l-0.2,0l-0.2-0.1l-0.2-0.2L208.4,219.7z"/>
		</g>
		<g>
			<path class="st2" d="M228.7,223l0.2-0.2l0.3-0.1l0.3,0.1l0.2,0.2l1.5,1.5l0.2,0.2l0.1,0.3l-0.1,0.3l-0.2,0.2l-5.7,5.7l-0.2,0.2
				l-0.3,0.1l-0.3-0.1l-0.2-0.2l-1.5-1.5l-0.2-0.2l-0.1-0.3l0.1-0.3l0.2-0.2L228.7,223z"/>
			<path class="st2" d="M240.6,234.9l0.2-0.2l0.3-0.1l0.3,0.1l0.2,0.2l1.5,1.5l0.2,0.2l0.1,0.3l-0.1,0.3l-0.2,0.2l-5.7,5.7l-0.2,0.2
				l-0.3,0.1l-0.3-0.1l-0.2-0.2l-1.5-1.5l-0.2-0.2l-0.1-0.3l0.1-0.3l0.2-0.2L240.6,234.9z"/>
		</g>
		<g>
			<path class="st2" d="M219.9,215.5l0.1-0.1l0.2,0l0.2,0l0.1,0.1l2.4,2.4l0.1,0.1l0,0.2l0,0.2l-0.1,0.1l-0.6,0.6l-0.1,0.1l-0.2,0
				l-0.2,0l-0.1-0.1l-2.4-2.4l-0.1-0.1l0-0.2l0-0.2l0.1-0.1L219.9,215.5z"/>
			<path class="st2" d="M216.1,219.3l0.1-0.1l0.2,0l0.2,0l0.1,0.1l2.4,2.4l0.1,0.1l0,0.2l0,0.2l-0.1,0.1l-0.6,0.6l-0.1,0.1l-0.2,0
				l-0.2,0l-0.1-0.1l-2.4-2.4l-0.1-0.1l0-0.2l0-0.2l0.1-0.1L216.1,219.3z"/>
			<path class="st2" d="M221.7,221.1l0.1-0.1l0.2,0l0.2,0l0.1,0.1l2.4,2.4l0.1,0.1l0,0.2l0,0.2l-0.1,0.1l-0.6,0.6l-0.1,0.1l-0.2,0
				l-0.2,0l-0.1-0.1l-2.4-2.4l-0.1-0.1l0-0.2l0-0.2l0.1-0.1L221.7,221.1z"/>
		</g>
		<g>
			<path class="st2" d="M132.2,235.9l0.2,0.2l0.1,0.3l0,0.3l-0.1,0.3l-1.2,1.7l-0.2,0.2l-0.3,0.1l-0.3,0l-0.3-0.1l-6.5-4.7l-0.2-0.2
				l-0.1-0.3l0-0.3l0.1-0.3l1.2-1.7l0.2-0.2l0.3-0.1l0.3,0l0.3,0.1L132.2,235.9z"/>
			<path class="st2" d="M122.3,249.5l0.2,0.2l0.1,0.3l0,0.3l-0.1,0.3l-1.2,1.7l-0.2,0.2l-0.3,0.1l-0.3,0l-0.3-0.1l-6.5-4.7l-0.2-0.2
				l-0.1-0.3l0-0.3l0.1-0.3l1.2-1.7l0.2-0.2l0.3-0.1l0.3,0l0.3,0.1L122.3,249.5z"/>
		</g>
		<g>
			<path class="st2" d="M145.7,120.2l0.3-0.1l0.3,0l0.2,0.1l0.2,0.2l0.7,1.3l0.1,0.3l0,0.3l-0.1,0.2l-0.2,0.2l-2.2,1.2l-0.3,0.1
				l-0.3,0l-0.2-0.1l-0.2-0.2l-0.7-1.3l-0.1-0.3l0-0.3l0.1-0.2l0.2-0.2L145.7,120.2z"/>
			<path class="st2" d="M148.2,124.7l0.3-0.1l0.3,0l0.2,0.1l0.2,0.2l0.7,1.3l0.1,0.3l0,0.3l-0.1,0.2l-0.2,0.2l-2.2,1.2l-0.3,0.1
				l-0.3,0l-0.2-0.1l-0.2-0.2l-0.7-1.3l-0.1-0.3l0-0.3l0.1-0.2l0.2-0.2L148.2,124.7z"/>
		</g>
		<g>
			<path class="st2" d="M157.1,124.2l-0.3,0l-0.3-0.1l-0.2-0.2l-0.1-0.2l-0.4-1.4l0-0.3l0.1-0.3l0.2-0.2l0.2-0.1l2.6-0.8l0.3,0
				l0.3,0.1l0.2,0.2l0.1,0.2l0.4,1.4l0,0.3l-0.1,0.3l-0.2,0.2l-0.2,0.1L157.1,124.2z"/>
			<path class="st2" d="M155.6,119.1l-0.3,0L155,119l-0.2-0.2l-0.1-0.2l-0.4-1.4l0-0.3l0.1-0.3l0.2-0.2l0.2-0.1l2.6-0.8l0.3,0
				l0.3,0.1l0.2,0.2l0.1,0.2l0.4,1.4l0,0.3l-0.1,0.3l-0.2,0.2l-0.2,0.1L155.6,119.1z"/>
		</g>
		<g>
			<path class="st2" d="M125.6,114.7l-0.3,0.1l-0.3,0l-0.3-0.1l-0.2-0.2l-1.2-1.7l-0.1-0.3l0-0.3l0.1-0.3l0.2-0.2l6.5-4.7l0.3-0.1
				l0.3,0l0.3,0.1l0.2,0.2l1.2,1.7l0.1,0.3l0,0.3l-0.1,0.3l-0.2,0.2L125.6,114.7z"/>
			<path class="st2" d="M115.7,101.1l-0.3,0.1l-0.3,0l-0.3-0.1l-0.2-0.2l-1.2-1.7l-0.1-0.3l0-0.3l0.1-0.3l0.2-0.2l6.5-4.7l0.3-0.1
				l0.3,0l0.3,0.1l0.2,0.2l1.2,1.7l0.1,0.3l0,0.3l-0.1,0.3l-0.2,0.2L115.7,101.1z"/>
		</g>
		<g>
			<path class="st2" d="M220.2,231.1l0.3-0.1l0.3,0l0.3,0.1l0.2,0.2l1.2,1.7l0.1,0.3l0,0.3l-0.1,0.3l-0.2,0.2l-6.5,4.7l-0.3,0.1
				l-0.3,0l-0.3-0.1l-0.2-0.2l-1.2-1.7l-0.1-0.3l0-0.3l0.1-0.3l0.2-0.2L220.2,231.1z"/>
			<path class="st2" d="M230.1,244.7l0.3-0.1l0.3,0l0.3,0.1l0.2,0.2l1.2,1.7l0.1,0.3l0,0.3l-0.1,0.3l-0.2,0.2l-6.5,4.7l-0.3,0.1
				l-0.3,0l-0.3-0.1l-0.2-0.2l-1.2-1.7l-0.1-0.3l0-0.3l0.1-0.3l0.2-0.2L230.1,244.7z"/>
		</g>
		<g>
			<path class="st2" d="M127.3,149.7l-0.2,0.2l-0.2,0.1l-0.3,0l-0.3-0.1l-1.2-0.7l-0.2-0.2l-0.1-0.2l0-0.3l0.1-0.3l1.3-2.4l0.2-0.2
				l0.2-0.1l0.3,0l0.3,0.1l1.2,0.7l0.2,0.2l0.1,0.2l0,0.3l-0.1,0.3L127.3,149.7z"/>
			<path class="st2" d="M122.6,147.1l-0.2,0.2l-0.2,0.1l-0.3,0l-0.3-0.1l-1.2-0.7l-0.2-0.2l-0.1-0.2l0-0.3l0.1-0.3l1.3-2.4l0.2-0.2
				l0.2-0.1l0.3,0l0.3,0.1l1.2,0.7l0.2,0.2l0.1,0.2l0,0.3l-0.1,0.3L122.6,147.1z"/>
		</g>
		<g>
			<path class="st2" d="M109.6,176l0,0.2l-0.1,0.1l-0.1,0.1l-0.2,0h-3.3l-0.2,0l-0.1-0.1l-0.1-0.1l0-0.2v-0.9l0-0.2l0.1-0.1l0.1-0.1
				l0.2,0h3.3l0.2,0l0.1,0.1l0.1,0.1l0,0.2V176z"/>
			<path class="st2" d="M109.6,170.6l0,0.2l-0.1,0.1l-0.1,0.1l-0.2,0h-3.3l-0.2,0l-0.1-0.1l-0.1-0.1l0-0.2v-0.9l0-0.2l0.1-0.1
				l0.1-0.1l0.2,0h3.3l0.2,0l0.1,0.1l0.1,0.1l0,0.2V170.6z"/>
			<path class="st2" d="M104.3,173.3l0,0.2l-0.1,0.1l-0.1,0.1l-0.2,0h-3.3l-0.2,0l-0.1-0.1l-0.1-0.1l0-0.2v-0.9l0-0.2l0.1-0.1
				l0.1-0.1l0.2,0h3.3l0.2,0l0.1,0.1l0.1,0.1l0,0.2V173.3z"/>
		</g>
		<g>
			<path class="st2" d="M149.7,218.5l0.2,0.2l0.1,0.2l0,0.3l-0.1,0.3l-0.7,1.2l-0.2,0.2l-0.2,0.1l-0.3,0l-0.3-0.1l-2.4-1.3l-0.2-0.2
				l-0.1-0.2l0-0.3l0.1-0.3l0.7-1.2l0.2-0.2l0.2-0.1l0.3,0l0.3,0.1L149.7,218.5z"/>
			<path class="st2" d="M147.1,223.3l0.2,0.2l0.1,0.2l0,0.3l-0.1,0.3l-0.7,1.2l-0.2,0.2l-0.2,0.1l-0.3,0l-0.3-0.1l-2.4-1.3l-0.2-0.2
				l-0.1-0.2l0-0.3l0.1-0.3l0.7-1.2l0.2-0.2l0.2-0.1l0.3,0l0.3,0.1L147.1,223.3z"/>
		</g>
		<g>
			<path class="st2" d="M234.9,159.9l0-0.2l0.1-0.2l0.1-0.1l0.2-0.1l3.3-0.5l0.2,0l0.2,0.1l0.1,0.1l0.1,0.2l0.1,0.8l0,0.2l-0.1,0.2
				l-0.1,0.1l-0.2,0.1l-3.3,0.5l-0.2,0l-0.2-0.1l-0.1-0.1l-0.1-0.2L234.9,159.9z"/>
			<path class="st2" d="M235.8,165.3l0-0.2l0.1-0.2l0.1-0.1l0.2-0.1l3.3-0.5l0.2,0l0.2,0.1l0.1,0.1l0.1,0.2l0.1,0.8l0,0.2l-0.1,0.2
				l-0.1,0.1l-0.2,0.1l-3.3,0.5l-0.2,0l-0.2-0.1l-0.1-0.1l-0.1-0.2L235.8,165.3z"/>
			<path class="st2" d="M240.6,161.8l0-0.2l0.1-0.2l0.1-0.1l0.2-0.1l3.3-0.5l0.2,0l0.2,0.1l0.1,0.1l0.1,0.2l0.1,0.8l0,0.2l-0.1,0.2
				l-0.1,0.1l-0.2,0.1l-3.3,0.5l-0.2,0l-0.2-0.1l-0.1-0.1l-0.1-0.2L240.6,161.8z"/>
		</g>
		<g>
			<path class="st2" d="M119.9,138.2l-0.1,0.1l-0.2,0.1l-0.2,0l-0.2-0.1l-2.7-2l-0.1-0.1l-0.1-0.2l0-0.2l0.1-0.2l0.5-0.7l0.1-0.1
				l0.2-0.1l0.2,0l0.2,0.1l2.7,2l0.1,0.1l0.1,0.2l0,0.2l-0.1,0.2L119.9,138.2z"/>
			<path class="st2" d="M123,133.9l-0.1,0.1l-0.2,0.1l-0.2,0l-0.2-0.1l-2.7-2l-0.1-0.1l-0.1-0.2l0-0.2l0.1-0.2l0.5-0.7l0.1-0.1
				l0.2-0.1l0.2,0l0.2,0.1l2.7,2l0.1,0.1l0.1,0.2l0,0.2l-0.1,0.2L123,133.9z"/>
			<path class="st2" d="M117.2,132.9L117,133l-0.2,0.1l-0.2,0l-0.2-0.1l-2.7-2l-0.1-0.1l-0.1-0.2l0-0.2l0.1-0.2l0.5-0.7l0.1-0.1
				l0.2-0.1l0.2,0l0.2,0.1l2.7,2l0.1,0.1l0.1,0.2l0,0.2l-0.1,0.2L117.2,132.9z"/>
		</g>
		<g>
			<path class="st2" d="M138.2,225.9l0.1,0.1l0.1,0.2l0,0.2l-0.1,0.2l-2,2.7l-0.1,0.1l-0.2,0.1l-0.2,0l-0.2-0.1l-0.7-0.5l-0.1-0.1
				l-0.1-0.2l0-0.2l0.1-0.2l2-2.7l0.1-0.1l0.2-0.1l0.2,0l0.2,0.1L138.2,225.9z"/>
			<path class="st2" d="M133.9,222.8l0.1,0.1l0.1,0.2l0,0.2l-0.1,0.2l-2,2.7l-0.1,0.1l-0.2,0.1l-0.2,0l-0.2-0.1l-0.7-0.5l-0.1-0.1
				l-0.1-0.2l0-0.2l0.1-0.2l2-2.7l0.1-0.1l0.2-0.1l0.2,0l0.2,0.1L133.9,222.8z"/>
			<path class="st2" d="M132.9,228.7l0.1,0.1l0.1,0.2l0,0.2l-0.1,0.2l-2,2.7l-0.1,0.1l-0.2,0.1l-0.2,0l-0.2-0.1l-0.7-0.5l-0.1-0.1
				l-0.1-0.2l0-0.2l0.1-0.2l2-2.7l0.1-0.1l0.2-0.1l0.2,0l0.2,0.1L132.9,228.7z"/>
		</g>
		<g>
			<path class="st2" d="M218.4,210.3l-0.1-0.2l-0.1-0.2l0-0.2l0.1-0.2l0.7-0.9l0.2-0.1l0.2-0.1l0.2,0l0.2,0.1l1.3,0.9l0.2,0.2
				l0.1,0.2l0,0.2l-0.1,0.2l-0.7,0.9l-0.2,0.2l-0.2,0.1l-0.2,0l-0.2-0.1L218.4,210.3z"/>
			<path class="st2" d="M221.1,206.5l-0.2-0.2l-0.1-0.2l0-0.2l0.1-0.2l0.7-0.9l0.2-0.2l0.2-0.1l0.2,0l0.2,0.1l1.3,0.9l0.1,0.2
				l0.1,0.2l0,0.2l-0.1,0.2l-0.7,0.9l-0.2,0.1l-0.2,0.1l-0.2,0l-0.2-0.1L221.1,206.5z"/>
		</g>
		<g>
			<path class="st2" d="M133.2,123.5l-0.2,0.1l-0.2,0l-0.2-0.1l-0.1-0.1l-2-2.7l-0.1-0.2l0-0.2l0.1-0.2l0.1-0.1l0.7-0.5l0.2-0.1
				l0.2,0l0.2,0.1l0.1,0.1l2,2.7l0.1,0.2l0,0.2l-0.1,0.2l-0.1,0.1L133.2,123.5z"/>
			<path class="st2" d="M137.6,120.4l-0.2,0.1l-0.2,0l-0.2-0.1l-0.1-0.1l-2-2.7l-0.1-0.2l0-0.2l0.1-0.2l0.1-0.1l0.7-0.5l0.2-0.1
				l0.2,0l0.2,0.1l0.1,0.1l2,2.7l0.1,0.2l0,0.2l-0.1,0.2l-0.1,0.1L137.6,120.4z"/>
			<path class="st2" d="M132.2,117.7l-0.2,0.1l-0.2,0l-0.2-0.1l-0.1-0.1l-2-2.7l-0.1-0.2l0-0.2l0.1-0.2l0.1-0.1l0.7-0.5l0.2-0.1
				l0.2,0l0.2,0.1l0.1,0.1l2,2.7l0.1,0.2l0,0.2L133,117l-0.1,0.1L132.2,117.7z"/>
		</g>
		<g>
			<path class="st2" d="M160.3,230.4l0.1-0.2l0.2-0.2l0.2-0.1l0.2,0l1.1,0.2l0.2,0.1l0.2,0.2l0.1,0.2l0,0.2l-0.2,1.5l-0.1,0.2
				l-0.2,0.2l-0.2,0.1l-0.2,0l-1.1-0.2l-0.2-0.1l-0.2-0.2l-0.1-0.2l0-0.2L160.3,230.4z"/>
			<path class="st2" d="M164.9,231.1l0.1-0.2l0.1-0.2l0.2-0.1l0.2,0l1.1,0.2l0.2,0.1l0.2,0.1l0.1,0.2l0,0.2l-0.2,1.5l-0.1,0.2
				l-0.2,0.2l-0.2,0.1l-0.2,0l-1.1-0.2l-0.2-0.1l-0.2-0.2l-0.1-0.2l0-0.2L164.9,231.1z"/>
		</g>
		<g>
			<path class="st2" d="M114.2,169.4l0.2,0l0.2,0.1l0.1,0.2l0,0.2v1.1l0,0.2l-0.1,0.2l-0.2,0.1l-0.2,0h-1.6l-0.2,0l-0.2-0.1
				l-0.1-0.2l0-0.2V170l0-0.2l0.1-0.2l0.2-0.1l0.2,0H114.2z"/>
			<path class="st2" d="M114.2,174.1l0.2,0l0.2,0.1l0.1,0.2l0,0.2v1.1l0,0.2l-0.1,0.2l-0.2,0.1l-0.2,0h-1.6l-0.2,0l-0.2-0.1
				l-0.1-0.2l0-0.2v-1.1l0-0.2l0.1-0.2l0.2-0.1l0.2,0H114.2z"/>
		</g>
		<g>
			<path class="st2" d="M176.4,114.2l0,0.2l-0.1,0.2l-0.2,0.1l-0.2,0h-1.1l-0.2,0l-0.2-0.1l-0.1-0.2l0-0.2v-1.6l0-0.2l0.1-0.2
				l0.2-0.1l0.2,0h1.1l0.2,0l0.2,0.1l0.1,0.2l0,0.2V114.2z"/>
			<path class="st2" d="M171.7,114.2l0,0.2l-0.1,0.2l-0.2,0.1l-0.2,0H170l-0.2,0l-0.2-0.1l-0.1-0.2l0-0.2v-1.6l0-0.2l0.1-0.2
				l0.2-0.1l0.2,0h1.1l0.2,0l0.2,0.1l0.1,0.2l0,0.2V114.2z"/>
		</g>
		<g>
			<path class="st2" d="M89.7,136.5l0.2-0.2l0.2-0.2l0.3-0.1l0.3,0.1l1.6,0.7l0.2,0.2l0.2,0.2l0.1,0.3l-0.1,0.3l-1.4,3.3l-0.2,0.2
				l-0.2,0.2l-0.3,0.1l-0.3-0.1l-1.6-0.7l-0.2-0.2l-0.2-0.2l-0.1-0.3l0.1-0.3L89.7,136.5z"/>
			<path class="st2" d="M97.4,139.7l0.2-0.2l0.2-0.2l0.3-0.1l0.3,0.1l1.6,0.7l0.2,0.2l0.2,0.2l0.1,0.3l-0.1,0.3l-1.4,3.3l-0.2,0.2
				l-0.2,0.2l-0.3,0.1l-0.3-0.1l-1.6-0.7l-0.2-0.2l-0.2-0.2l-0.1-0.3L96,143L97.4,139.7z"/>
		</g>
		<g>
			<path class="st2" d="M209.3,89.7l0.2,0.2l0.2,0.2l0.1,0.3l-0.1,0.3l-0.7,1.6l-0.2,0.2l-0.2,0.2l-0.3,0.1l-0.3-0.1l-3.3-1.4
				l-0.2-0.2l-0.2-0.2l-0.1-0.3l0.1-0.3l0.7-1.6l0.2-0.2l0.2-0.2l0.3-0.1l0.3,0.1L209.3,89.7z"/>
			<path class="st2" d="M206.1,97.4l0.2,0.2l0.2,0.2l0.1,0.3l-0.1,0.3l-0.7,1.6l-0.2,0.2l-0.2,0.2l-0.3,0.1l-0.3-0.1l-3.3-1.4
				l-0.2-0.2l-0.2-0.2l-0.1-0.3l0.1-0.3l0.7-1.6l0.2-0.2l0.2-0.2l0.3-0.1l0.3,0.1L206.1,97.4z"/>
		</g>
		<g>
			<path class="st2" d="M109.9,166.1l-0.1,0.2l-0.1,0.1l-0.2,0.1l-0.2,0l-3.3-0.5l-0.2-0.1l-0.1-0.1l-0.1-0.2l0-0.2l0.1-0.8l0.1-0.2
				l0.1-0.1l0.2-0.1l0.2,0l3.3,0.5l0.2,0.1l0.1,0.1l0.1,0.2l0,0.2L109.9,166.1z"/>
			<path class="st2" d="M110.8,160.8l-0.1,0.2l-0.1,0.1l-0.2,0.1l-0.2,0l-3.3-0.5l-0.2-0.1l-0.1-0.1l-0.1-0.2l0-0.2l0.1-0.8l0.1-0.2
				l0.1-0.1l0.2-0.1l0.2,0l3.3,0.5l0.2,0.1l0.1,0.1l0.1,0.2l0,0.2L110.8,160.8z"/>
			<path class="st2" d="M105.1,162.6l-0.1,0.2l-0.1,0.1l-0.2,0.1l-0.2,0l-3.3-0.5l-0.2-0.1l-0.1-0.1l-0.1-0.2l0-0.2l0.1-0.8l0.1-0.2
				l0.1-0.1l0.2-0.1l0.2,0l3.3,0.5l0.2,0.1l0.1,0.1l0.1,0.2l0,0.2L105.1,162.6z"/>
		</g>
		<g>
			<path class="st2" d="M169.8,109.6l-0.2,0l-0.1-0.1l-0.1-0.1l0-0.2v-3.3l0-0.2l0.1-0.1l0.1-0.1l0.2,0h0.9l0.2,0l0.1,0.1l0.1,0.1
				l0,0.2v3.3l0,0.2l-0.1,0.1l-0.1,0.1l-0.2,0H169.8z"/>
			<path class="st2" d="M175.2,109.6l-0.2,0l-0.1-0.1l-0.1-0.1l0-0.2v-3.3l0-0.2l0.1-0.1l0.1-0.1l0.2,0h0.9l0.2,0l0.1,0.1l0.1,0.1
				l0,0.2v3.3l0,0.2l-0.1,0.1l-0.1,0.1l-0.2,0H175.2z"/>
			<path class="st2" d="M172.5,104.3l-0.2,0l-0.1-0.1l-0.1-0.1l0-0.2v-3.3l0-0.2l0.1-0.1l0.1-0.1l0.2,0h0.9l0.2,0l0.1,0.1l0.1,0.1
				l0,0.2v3.3l0,0.2l-0.1,0.1l-0.1,0.1l-0.2,0H172.5z"/>
		</g>
		<g>
			<path class="st2" d="M181.4,177.2l-0.3-0.1l-0.2-0.2l-0.2-0.2l-0.1-0.3V175l0.1-0.3l0.2-0.2l0.2-0.2l0.3-0.1h14.2l0.3,0.1
				l0.2,0.2l0.2,0.2l0.1,0.3v1.4l-0.1,0.3l-0.2,0.2l-0.2,0.2l-0.3,0.1H181.4z"/>
			<path class="st2" d="M181.4,171.5l-0.3-0.1l-0.2-0.2l-0.2-0.2l-0.1-0.3v-1.4l0.1-0.3l0.2-0.2l0.2-0.2l0.3-0.1h14.2l0.3,0.1
				l0.2,0.2l0.2,0.2l0.1,0.3v1.4l-0.1,0.3l-0.2,0.2l-0.2,0.2l-0.3,0.1H181.4z"/>
			<path class="st2" d="M178.6,184.8l-0.3-0.1l-0.2-0.2l-0.2-0.2l-0.1-0.3V181l0.1-0.3l0.2-0.2l0.2-0.2l0.3-0.1h7.1l0.3,0.1l0.2,0.2
				l0.2,0.2l0.1,0.3v3.1l-0.1,0.3l-0.2,0.2l-0.2,0.2l-0.3,0.1H178.6z"/>
			<path class="st2" d="M178.6,165.5l-0.3-0.1l-0.2-0.2l-0.2-0.2l-0.1-0.3v-3.1l0.1-0.3l0.2-0.2l0.2-0.2l0.3-0.1h7.1l0.3,0.1
				l0.2,0.2l0.2,0.2l0.1,0.3v3.1l-0.1,0.3l-0.2,0.2l-0.2,0.2l-0.3,0.1H178.6z"/>
		</g>
		<g>
			<path class="st2" d="M207.6,119.9l-0.1-0.1l-0.1-0.2l0-0.2l0.1-0.2l2-2.7l0.1-0.1l0.2-0.1l0.2,0l0.2,0.1l0.7,0.5l0.1,0.1l0.1,0.2
				l0,0.2l-0.1,0.2l-2,2.7l-0.1,0.1l-0.2,0.1l-0.2,0l-0.2-0.1L207.6,119.9z"/>
			<path class="st2" d="M211.9,123l-0.1-0.1l-0.1-0.2l0-0.2l0.1-0.2l2-2.7l0.1-0.1l0.2-0.1l0.2,0l0.2,0.1l0.7,0.5l0.1,0.1l0.1,0.2
				l0,0.2l-0.1,0.2l-2,2.7l-0.1,0.1l-0.2,0.1l-0.2,0l-0.2-0.1L211.9,123z"/>
			<path class="st2" d="M212.9,117.2l-0.1-0.1l-0.1-0.2l0-0.2l0.1-0.2l2-2.7l0.1-0.1l0.2-0.1l0.2,0l0.2,0.1l0.7,0.5l0.1,0.1l0.1,0.2
				l0,0.2l-0.1,0.2l-2,2.7l-0.1,0.1l-0.2,0.1l-0.2,0l-0.2-0.1L212.9,117.2z"/>
		</g>
		<g>
			<path class="st2" d="M177,247.8l0.3,0.1l0.2,0.2l0.2,0.2l0.1,0.3v2.1l-0.1,0.3l-0.2,0.2l-0.2,0.2l-0.3,0.1h-8.1l-0.3-0.1
				l-0.2-0.2l-0.2-0.2l-0.1-0.3v-2.1l0.1-0.3l0.2-0.2l0.2-0.2l0.3-0.1H177z"/>
			<path class="st2" d="M177,264.6l0.3,0.1l0.2,0.2l0.2,0.2l0.1,0.3v2.1l-0.1,0.3l-0.2,0.2l-0.2,0.2l-0.3,0.1h-8.1l-0.3-0.1
				l-0.2-0.2l-0.2-0.2l-0.1-0.3v-2.1l0.1-0.3l0.2-0.2l0.2-0.2l0.3-0.1H177z"/>
		</g>
		<g>
			<path class="st2" d="M222.3,133.2l-0.1-0.2l0-0.2l0.1-0.2l0.1-0.1l2.7-2l0.2-0.1l0.2,0l0.2,0.1l0.1,0.1l0.5,0.7l0.1,0.2l0,0.2
				l-0.1,0.2l-0.1,0.1l-2.7,2l-0.2,0.1l-0.2,0l-0.2-0.1l-0.1-0.1L222.3,133.2z"/>
			<path class="st2" d="M225.4,137.6l-0.1-0.2l0-0.2l0.1-0.2l0.1-0.1l2.7-2l0.2-0.1l0.2,0l0.2,0.1l0.1,0.1l0.5,0.7l0.1,0.2l0,0.2
				l-0.1,0.2l-0.1,0.1l-2.7,2l-0.2,0.1l-0.2,0l-0.2-0.1l-0.1-0.1L225.4,137.6z"/>
			<path class="st2" d="M228.2,132.2l-0.1-0.2l0-0.2l0.1-0.2l0.1-0.1l2.7-2l0.2-0.1l0.2,0l0.2,0.1l0.1,0.1l0.5,0.7l0.1,0.2l0,0.2
				l-0.1,0.2l-0.1,0.1l-2.7,2l-0.2,0.1l-0.2,0l-0.2-0.1l-0.1-0.1L228.2,132.2z"/>
		</g>
		<g>
			<path class="st2" d="M122.8,228.7l0.2,0.2l0.1,0.3l-0.1,0.3l-0.2,0.2l-1.5,1.5l-0.2,0.2l-0.3,0.1l-0.3-0.1l-0.2-0.2l-5.7-5.7
				l-0.2-0.2l-0.1-0.3l0.1-0.3l0.2-0.2l1.5-1.5l0.2-0.2l0.3-0.1l0.3,0.1l0.2,0.2L122.8,228.7z"/>
			<path class="st2" d="M110.9,240.6l0.2,0.2l0.1,0.3l-0.1,0.3l-0.2,0.2l-1.5,1.5l-0.2,0.2l-0.3,0.1l-0.3-0.1l-0.2-0.2l-5.7-5.7
				l-0.2-0.2l-0.1-0.3l0.1-0.3l0.2-0.2l1.5-1.5l0.2-0.2l0.3-0.1l0.3,0.1l0.2,0.2L110.9,240.6z"/>
		</g>
		<g>
			<path class="st2" d="M114.3,178.7l0.2,0l0.2,0.1l0.1,0.2l0.1,0.2l0.2,1.1l0,0.2l-0.1,0.2l-0.2,0.1l-0.2,0.1l-1.5,0.2l-0.2,0
				l-0.2-0.1l-0.2-0.2l-0.1-0.2l-0.2-1.1l0-0.2l0.1-0.2l0.2-0.2l0.2-0.1L114.3,178.7z"/>
			<path class="st2" d="M115.1,183.3l0.2,0l0.2,0.1l0.2,0.2l0.1,0.2l0.2,1.1l0,0.2l-0.1,0.2l-0.2,0.2l-0.2,0.1l-1.5,0.2l-0.2,0
				l-0.2-0.1l-0.2-0.2l-0.1-0.2l-0.2-1.1l0-0.2l0.1-0.2l0.2-0.2l0.2-0.1L115.1,183.3z"/>
		</g>
		<g>
			<path class="st2" d="M176,236.2l0.2,0l0.1,0.1l0.1,0.1l0,0.2v3.3l0,0.2l-0.1,0.1l-0.1,0.1l-0.2,0h-0.9l-0.2,0l-0.1-0.1l-0.1-0.1
				l0-0.2v-3.3l0-0.2l0.1-0.1l0.1-0.1l0.2,0H176z"/>
			<path class="st2" d="M170.6,236.2l0.2,0l0.1,0.1l0.1,0.1l0,0.2v3.3l0,0.2l-0.1,0.1l-0.1,0.1l-0.2,0h-0.9l-0.2,0l-0.1-0.1
				l-0.1-0.1l0-0.2v-3.3l0-0.2l0.1-0.1l0.1-0.1l0.2,0H170.6z"/>
			<path class="st2" d="M173.3,241.5l0.2,0l0.1,0.1l0.1,0.1l0,0.2v3.3l0,0.2l-0.1,0.1l-0.1,0.1l-0.2,0h-0.9l-0.2,0l-0.1-0.1
				l-0.1-0.1l0-0.2v-3.3l0-0.2l0.1-0.1l0.1-0.1l0.2,0H173.3z"/>
		</g>
		<g>
			<path class="st2" d="M196.1,127.3l-0.2-0.2l-0.1-0.2l0-0.3l0.1-0.3l0.7-1.2l0.2-0.2l0.2-0.1l0.3,0l0.3,0.1l2.4,1.3l0.2,0.2
				l0.1,0.2l0,0.3l-0.1,0.3l-0.7,1.2l-0.2,0.2l-0.2,0.1l-0.3,0l-0.3-0.1L196.1,127.3z"/>
			<path class="st2" d="M198.7,122.6l-0.2-0.2l-0.1-0.2l0-0.3l0.1-0.3l0.7-1.2l0.2-0.2l0.2-0.1l0.3,0l0.3,0.1l2.4,1.3l0.2,0.2
				l0.1,0.2l0,0.3l-0.1,0.3l-0.7,1.2l-0.2,0.2l-0.2,0.1l-0.3,0l-0.3-0.1L198.7,122.6z"/>
		</g>
		<g>
			<path class="st2" d="M133.8,128.9l0.1,0.2l0,0.2l0,0.2l-0.1,0.2l-0.8,0.8l-0.2,0.1l-0.2,0l-0.2,0l-0.2-0.1l-1.1-1.1l-0.1-0.2
				l0-0.2l0-0.2l0.1-0.2l0.8-0.8l0.2-0.1l0.2,0l0.2,0l0.2,0.1L133.8,128.9z"/>
			<path class="st2" d="M130.5,132.2l0.1,0.2l0,0.2l0,0.2l-0.1,0.2l-0.8,0.8l-0.2,0.1l-0.2,0l-0.2,0l-0.2-0.1l-1.1-1.1l-0.1-0.2
				l0-0.2l0-0.2l0.1-0.2l0.8-0.8l0.2-0.1l0.2,0l0.2,0l0.2,0.1L130.5,132.2z"/>
		</g>
		<g>
			<path class="st2" d="M302.9,169.5v-2.8h10.2v2.8H302.9z"/>
			<path class="st2" d="M302.9,174.4v-2.8h10.2v2.8H302.9z"/>
			<path class="st2" d="M302.9,179.2v-2.8h10.2v2.8H302.9z"/>
			<path class="st2" d="M270.6,179.2v-2.8h10.2v2.8H270.6z"/>
			<path class="st2" d="M270.6,174.4v-2.8h10.2v2.8H270.6z"/>
			<path class="st2" d="M270.6,169.5v-2.8h10.2v2.8H270.6z"/>
			<circle class="st3" cx="291.8" cy="172.9" r="8.4"/>
		</g>
		<g>
			<path class="st2" d="M168.9,98l-0.3-0.1l-0.2-0.2l-0.2-0.2l-0.1-0.3v-2.1l0.1-0.3l0.2-0.2l0.2-0.2l0.3-0.1h8.1l0.3,0.1l0.2,0.2
				l0.2,0.2l0.1,0.3v2.1l-0.1,0.3l-0.2,0.2l-0.2,0.2L177,98H168.9z"/>
			<path class="st2" d="M168.9,81.2l-0.3-0.1l-0.2-0.2l-0.2-0.2l-0.1-0.3v-2.1l0.1-0.3l0.2-0.2l0.2-0.2l0.3-0.1h8.1l0.3,0.1l0.2,0.2
				l0.2,0.2l0.1,0.3v2.1l-0.1,0.3l-0.2,0.2l-0.2,0.2l-0.3,0.1H168.9z"/>
		</g>
		<g>
			<path class="st2" d="M231.5,167.2l-0.2,0l-0.2-0.1l-0.1-0.2l-0.1-0.2l-0.2-1.1l0-0.2l0.1-0.2l0.2-0.1l0.2-0.1l1.5-0.2l0.2,0
				l0.2,0.1l0.2,0.2l0.1,0.2l0.2,1.1l0,0.2l-0.1,0.2l-0.2,0.2l-0.2,0.1L231.5,167.2z"/>
			<path class="st2" d="M230.7,162.5l-0.2,0l-0.2-0.1l-0.2-0.2l-0.1-0.2l-0.2-1.1l0-0.2l0.1-0.2l0.2-0.2l0.2-0.1l1.5-0.2l0.2,0
				l0.2,0.1l0.2,0.2l0.1,0.2l0.2,1.1l0,0.2l-0.1,0.2l-0.2,0.2l-0.2,0.1L230.7,162.5z"/>
		</g>
		<g>
			<path class="st2" d="M222.5,141.2l-0.2,0.1l-0.2,0l-0.2-0.1l-0.2-0.2l-0.7-0.9l-0.1-0.2l0-0.2l0.1-0.2l0.2-0.2l1.3-0.9l0.2-0.1
				l0.2,0l0.2,0.1l0.2,0.1l0.7,0.9l0.1,0.2l0,0.2l-0.1,0.2l-0.1,0.2L222.5,141.2z"/>
			<path class="st2" d="M219.7,137.4l-0.2,0.1l-0.2,0l-0.2-0.1l-0.2-0.1l-0.7-0.9l-0.1-0.2l0-0.2l0.1-0.2l0.1-0.2l1.3-0.9l0.2-0.1
				l0.2,0l0.2,0.1l0.2,0.2l0.7,0.9l0.1,0.2l0,0.2l-0.1,0.2l-0.2,0.2L219.7,137.4z"/>
		</g>
		<g>
			<path class="st2" d="M267.2,262.5l2-2l7.2,7.2l-2,2L267.2,262.5z"/>
			<path class="st2" d="M263.8,266l2-2l7.2,7.2l-2,2L263.8,266z"/>
			<path class="st2" d="M260.4,269.4l2-2l7.2,7.2l-2,2L260.4,269.4z"/>
			<path class="st2" d="M237.5,246.5l2-2l7.2,7.2l-2,2L237.5,246.5z"/>
			<path class="st2" d="M240.9,243.1l2-2l7.2,7.2l-2,2L240.9,243.1z"/>
			<path class="st2" d="M244.3,239.7l2-2l7.2,7.2l-2,2L244.3,239.7z"/>
			<circle class="st3" cx="257" cy="257.1" r="8.4"/>
		</g>
		<g>
			<path class="st2" d="M42.7,176.4v2.8H32.5v-2.8H42.7z"/>
			<path class="st2" d="M42.7,171.5v2.8H32.5v-2.8H42.7z"/>
			<path class="st2" d="M42.7,166.7v2.8H32.5v-2.8H42.7z"/>
			<path class="st2" d="M75,166.7v2.8H64.8v-2.8H75z"/>
			<path class="st2" d="M75,171.5v2.8H64.8v-2.8H75z"/>
			<path class="st2" d="M75,176.4v2.8H64.8v-2.8H75z"/>
			<circle class="st3" cx="53.7" cy="172.9" r="8.4"/>
		</g>
		<g>
			<path class="st2" d="M98.3,165.2l-0.1,0.3l-0.2,0.2l-0.3,0.1l-0.3,0l-2-0.3l-0.3-0.1l-0.2-0.2l-0.1-0.3l0-0.3l1.3-8l0.1-0.3
				l0.2-0.2l0.3-0.1l0.3,0l2,0.3l0.3,0.1l0.2,0.2l0.1,0.3l0,0.3L98.3,165.2z"/>
			<path class="st2" d="M81.7,162.6l-0.1,0.3l-0.2,0.2l-0.3,0.1l-0.3,0l-2-0.3l-0.3-0.1l-0.2-0.2l-0.1-0.3l0-0.3l1.3-8l0.1-0.3
				l0.2-0.2l0.3-0.1l0.3,0l2,0.3l0.3,0.1l0.2,0.2l0.1,0.3l0,0.3L81.7,162.6z"/>
		</g>
		<g>
			<path class="st2" d="M200.1,225.6l-0.3,0.1l-0.3,0l-0.2-0.1l-0.2-0.2l-0.7-1.3l-0.1-0.3l0-0.3l0.1-0.2l0.2-0.2l2.2-1.2l0.3-0.1
				l0.3,0l0.2,0.1l0.2,0.2l0.7,1.3l0.1,0.3l0,0.3l-0.1,0.2l-0.2,0.2L200.1,225.6z"/>
			<path class="st2" d="M197.6,221.1l-0.3,0.1l-0.3,0l-0.2-0.1l-0.2-0.2l-0.7-1.3l-0.1-0.3l0-0.3l0.1-0.2l0.2-0.2l2.2-1.2l0.3-0.1
				l0.3,0l0.2,0.1l0.2,0.2l0.7,1.3l0.1,0.3l0,0.3l-0.1,0.2l-0.2,0.2L197.6,221.1z"/>
		</g>
		<g>
			<path class="st2" d="M225.6,145.7l0.1,0.3l0,0.3l-0.1,0.2l-0.2,0.2l-1.3,0.7l-0.3,0.1l-0.3,0l-0.2-0.1l-0.2-0.2l-1.2-2.2
				l-0.1-0.3l0-0.3l0.1-0.2l0.2-0.2l1.3-0.7l0.3-0.1l0.3,0l0.2,0.1l0.2,0.2L225.6,145.7z"/>
			<path class="st2" d="M221.1,148.2l0.1,0.3l0,0.3L221,149l-0.2,0.2l-1.3,0.7l-0.3,0.1l-0.3,0l-0.2-0.1l-0.2-0.2l-1.2-2.2l-0.1-0.3
				l0-0.3l0.1-0.2l0.2-0.2l1.3-0.7l0.3-0.1l0.3,0l0.2,0.1l0.2,0.2L221.1,148.2z"/>
		</g>
		<g>
			<path class="st2" d="M257.5,139.8l0.1,0.3l-0.1,0.3l-0.2,0.2l-0.2,0.2l-1.6,0.7l-0.3,0.1l-0.3-0.1l-0.2-0.2l-0.2-0.2l-1.4-3.3
				l-0.1-0.3l0.1-0.3l0.2-0.2l0.2-0.2l1.6-0.7l0.3-0.1l0.3,0.1l0.2,0.2l0.2,0.2L257.5,139.8z"/>
			<path class="st2" d="M249.8,143l0.1,0.3l-0.1,0.3l-0.2,0.2l-0.2,0.2l-1.6,0.7l-0.3,0.1l-0.3-0.1l-0.2-0.2l-0.2-0.2l-1.4-3.3
				l-0.1-0.3l0.1-0.3l0.2-0.2l0.2-0.2l1.6-0.7l0.3-0.1l0.3,0.1l0.2,0.2l0.2,0.2L249.8,143z"/>
		</g>
		<g>
			<path class="st2" d="M138,129.8l0.1-0.1l0.2,0l0.2,0l0.1,0.1l3.3,3.3l0.1,0.1l0,0.2l0,0.2l-0.1,0.1l-0.6,0.6l-0.1,0.1l-0.2,0
				l-0.2,0l-0.1-0.1l-3.3-3.3l-0.1-0.1l0-0.2l0-0.2l0.1-0.1L138,129.8z"/>
			<path class="st2" d="M135.5,132.4l0.1-0.1l0.2,0l0.2,0l0.1,0.1l3.3,3.3l0.1,0.1l0,0.2l0,0.2l-0.1,0.1l-0.6,0.6l-0.1,0.1l-0.2,0
				l-0.2,0l-0.1-0.1l-3.3-3.3l-0.1-0.1l0-0.2l0-0.2l0.1-0.1L135.5,132.4z"/>
			<path class="st2" d="M133,134.9l0.1-0.1l0.2,0l0.2,0l0.1,0.1l3.3,3.3l0.1,0.1l0,0.2l0,0.2l-0.1,0.1l-0.6,0.6l-0.1,0.1l-0.2,0
				l-0.2,0l-0.1-0.1l-3.3-3.3l-0.1-0.1l0-0.2l0-0.2l0.1-0.1L133,134.9z"/>
			<path class="st2" d="M130.4,137.4l0.1-0.1l0.2,0l0.2,0l0.1,0.1l3.3,3.3l0.1,0.1l0,0.2l0,0.2l-0.1,0.1l-0.6,0.6l-0.1,0.1l-0.2,0
				l-0.2,0l-0.1-0.1l-3.3-3.3l-0.1-0.1l0-0.2l0-0.2l0.1-0.1L130.4,137.4z"/>
			<path class="st2" d="M140.3,147.4l0.1-0.1l0.2,0l0.2,0l0.1,0.1l3.3,3.3l0.1,0.1l0,0.2l0,0.2l-0.1,0.1l-0.6,0.6l-0.1,0.1l-0.2,0
				l-0.2,0l-0.1-0.1l-3.3-3.3l-0.1-0.1l0-0.2l0-0.2l0.1-0.1L140.3,147.4z"/>
			<path class="st2" d="M142.9,144.8l0.1-0.1l0.2,0l0.2,0l0.1,0.1l3.3,3.3l0.1,0.1l0,0.2l0,0.2l-0.1,0.1l-0.6,0.6l-0.1,0.1l-0.2,0
				l-0.2,0l-0.1-0.1l-3.3-3.3l-0.1-0.1l0-0.2l0-0.2l0.1-0.1L142.9,144.8z"/>
			<path class="st2" d="M145.4,142.3l0.1-0.1l0.2,0l0.2,0l0.1,0.1l3.3,3.3l0.1,0.1l0,0.2l0,0.2l-0.1,0.1l-0.6,0.6l-0.1,0.1l-0.2,0
				l-0.2,0l-0.1-0.1l-3.3-3.3l-0.1-0.1l0-0.2l0-0.2l0.1-0.1L145.4,142.3z"/>
			<path class="st2" d="M148,139.7l0.1-0.1l0.2,0l0.2,0l0.1,0.1l3.3,3.3l0.1,0.1l0,0.2l0,0.2l-0.1,0.1l-0.6,0.6l-0.1,0.1l-0.2,0
				l-0.2,0l-0.1-0.1l-3.3-3.3l-0.1-0.1l0-0.2l0-0.2l0.1-0.1L148,139.7z"/>
		</g>
		<g>
			<path class="st2" d="M135.6,218.4l0.2-0.1l0.2-0.1l0.2,0l0.2,0.1l0.9,0.7l0.1,0.2l0.1,0.2l0,0.2l-0.1,0.2l-0.9,1.3l-0.2,0.2
				l-0.2,0.1l-0.2,0l-0.2-0.1l-0.9-0.7l-0.2-0.2l-0.1-0.2l0-0.2l0.1-0.2L135.6,218.4z"/>
			<path class="st2" d="M139.4,221.1l0.2-0.2l0.2-0.1l0.2,0l0.2,0.1l0.9,0.7l0.2,0.2l0.1,0.2l0,0.2l-0.1,0.2l-0.9,1.3l-0.2,0.1
				l-0.2,0.1l-0.2,0l-0.2-0.1l-0.9-0.7l-0.1-0.2l-0.1-0.2l0-0.2l0.1-0.2L139.4,221.1z"/>
		</g>
		<g>
			<path class="st2" d="M228,178.7l0,0.2l-0.1,0.1l-0.1,0.1l-0.2,0h-4.7l-0.2,0l-0.1-0.1l-0.1-0.1l0-0.2v-0.9l0-0.2l0.1-0.1l0.1-0.1
				l0.2,0h4.7l0.2,0l0.1,0.1l0.1,0.1l0,0.2V178.7z"/>
			<path class="st2" d="M228,175.1l0,0.2l-0.1,0.1l-0.1,0.1l-0.2,0h-4.7l-0.2,0l-0.1-0.1l-0.1-0.1l0-0.2v-0.9l0-0.2l0.1-0.1l0.1-0.1
				l0.2,0h4.7l0.2,0l0.1,0.1l0.1,0.1l0,0.2V175.1z"/>
			<path class="st2" d="M228,171.5l0,0.2l-0.1,0.1l-0.1,0.1l-0.2,0h-4.7l-0.2,0l-0.1-0.1l-0.1-0.1l0-0.2v-0.9l0-0.2l0.1-0.1l0.1-0.1
				l0.2,0h4.7l0.2,0l0.1,0.1l0.1,0.1l0,0.2V171.5z"/>
			<path class="st2" d="M228,167.9l0,0.2l-0.1,0.1l-0.1,0.1l-0.2,0h-4.7l-0.2,0l-0.1-0.1l-0.1-0.1l0-0.2v-0.9l0-0.2l0.1-0.1l0.1-0.1
				l0.2,0h4.7l0.2,0l0.1,0.1l0.1,0.1l0,0.2V167.9z"/>
			<path class="st2" d="M214,167.9l0,0.2l-0.1,0.1l-0.1,0.1l-0.2,0h-4.7l-0.2,0l-0.1-0.1l-0.1-0.1l0-0.2v-0.9l0-0.2l0.1-0.1l0.1-0.1
				l0.2,0h4.7l0.2,0l0.1,0.1l0.1,0.1l0,0.2V167.9z"/>
			<path class="st2" d="M214,171.5l0,0.2l-0.1,0.1l-0.1,0.1l-0.2,0h-4.7l-0.2,0l-0.1-0.1l-0.1-0.1l0-0.2v-0.9l0-0.2l0.1-0.1l0.1-0.1
				l0.2,0h4.7l0.2,0l0.1,0.1l0.1,0.1l0,0.2V171.5z"/>
			<path class="st2" d="M214,175.1l0,0.2l-0.1,0.1l-0.1,0.1l-0.2,0h-4.7l-0.2,0l-0.1-0.1l-0.1-0.1l0-0.2v-0.9l0-0.2l0.1-0.1l0.1-0.1
				l0.2,0h4.7l0.2,0l0.1,0.1l0.1,0.1l0,0.2V175.1z"/>
			<path class="st2" d="M214,178.7l0,0.2l-0.1,0.1l-0.1,0.1l-0.2,0h-4.7l-0.2,0l-0.1-0.1l-0.1-0.1l0-0.2v-0.9l0-0.2l0.1-0.1l0.1-0.1
				l0.2,0h4.7l0.2,0l0.1,0.1l0.1,0.1l0,0.2V178.7z"/>
		</g>
		<g>
			<path class="st2" d="M213.7,109.9l-0.2-0.2l-0.1-0.3l0-0.3l0.1-0.3l1.2-1.7l0.2-0.2l0.3-0.1l0.3,0l0.3,0.1l6.5,4.7l0.2,0.2
				l0.1,0.3l0,0.3l-0.1,0.3l-1.2,1.7l-0.2,0.2l-0.3,0.1l-0.3,0l-0.3-0.1L213.7,109.9z"/>
			<path class="st2" d="M223.5,96.4l-0.2-0.2l-0.1-0.3l0-0.3l0.1-0.3l1.2-1.7l0.2-0.2l0.3-0.1l0.3,0l0.3,0.1l6.5,4.7l0.2,0.2
				l0.1,0.3l0,0.3l-0.1,0.3l-1.2,1.7l-0.2,0.2l-0.3,0.1l-0.3,0l-0.3-0.1L223.5,96.4z"/>
		</g>
		<g>
			<path class="st2" d="M191,116.4l0.2,0.1l0.2,0.2l0.1,0.3l0,0.3l-0.4,1.4l-0.1,0.2l-0.2,0.2l-0.3,0.1l-0.3,0l-2.4-0.7l-0.2-0.1
				l-0.2-0.2l-0.1-0.3l0-0.3l0.4-1.4l0.1-0.2l0.2-0.2l0.3-0.1l0.3,0L191,116.4z"/>
			<path class="st2" d="M189.5,121.4l0.2,0.1l0.2,0.2l0.1,0.3l0,0.3l-0.4,1.4l-0.1,0.2l-0.2,0.2l-0.3,0.1l-0.3,0l-2.4-0.7l-0.2-0.1
				l-0.2-0.2l-0.1-0.3l0-0.3l0.4-1.4l0.1-0.2l0.2-0.2l0.3-0.1l0.3,0L189.5,121.4z"/>
		</g>
		<g>
			<path class="st2" d="M235.9,213.7l0.2-0.2l0.3-0.1l0.3,0l0.3,0.1l1.7,1.2l0.2,0.2l0.1,0.3l0,0.3l-0.1,0.3l-4.7,6.5l-0.2,0.2
				l-0.3,0.1l-0.3,0l-0.3-0.1l-1.7-1.2l-0.2-0.2l-0.1-0.3l0-0.3l0.1-0.3L235.9,213.7z"/>
			<path class="st2" d="M249.5,223.5l0.2-0.2l0.3-0.1l0.3,0l0.3,0.1l1.7,1.2l0.2,0.2l0.1,0.3l0,0.3l-0.1,0.3l-4.7,6.5l-0.2,0.2
				l-0.3,0.1l-0.3,0l-0.3-0.1l-1.7-1.2l-0.2-0.2l-0.1-0.3l0-0.3l0.1-0.3L249.5,223.5z"/>
		</g>
		<g>
			<path class="st2" d="M116.4,154.8l0.1-0.2l0.2-0.2l0.3-0.1l0.3,0l1.4,0.4l0.2,0.1l0.2,0.2l0.1,0.3l0,0.3l-0.7,2.4l-0.1,0.2
				l-0.2,0.2l-0.3,0.1l-0.3,0l-1.4-0.4l-0.2-0.1l-0.2-0.2l-0.1-0.3l0-0.3L116.4,154.8z"/>
			<path class="st2" d="M121.4,156.3l0.1-0.2l0.2-0.2l0.3-0.1l0.3,0l1.4,0.4l0.2,0.1l0.2,0.2l0.1,0.3l0,0.3l-0.7,2.4l-0.1,0.2
				l-0.2,0.2l-0.3,0.1l-0.3,0l-1.4-0.4l-0.2-0.1l-0.2-0.2l-0.1-0.3l0-0.3L121.4,156.3z"/>
		</g>
		<g>
			<path class="st2" d="M129.8,207.8l-0.1-0.1l0-0.2l0-0.2l0.1-0.1l3.3-3.3l0.1-0.1l0.2,0l0.2,0l0.1,0.1l0.6,0.6l0.1,0.1l0,0.2
				l0,0.2l-0.1,0.1l-3.3,3.3l-0.1,0.1l-0.2,0l-0.2,0l-0.1-0.1L129.8,207.8z"/>
			<path class="st2" d="M132.4,210.3l-0.1-0.1l0-0.2l0-0.2l0.1-0.1l3.3-3.3l0.1-0.1l0.2,0l0.2,0l0.1,0.1l0.6,0.6l0.1,0.1l0,0.2
				l0,0.2l-0.1,0.1l-3.3,3.3l-0.1,0.1l-0.2,0l-0.2,0l-0.1-0.1L132.4,210.3z"/>
			<path class="st2" d="M134.9,212.9l-0.1-0.1l0-0.2l0-0.2l0.1-0.1l3.3-3.3l0.1-0.1l0.2,0l0.2,0l0.1,0.1l0.6,0.6l0.1,0.1l0,0.2
				l0,0.2l-0.1,0.1l-3.3,3.3l-0.1,0.1l-0.2,0l-0.2,0l-0.1-0.1L134.9,212.9z"/>
			<path class="st2" d="M137.4,215.4l-0.1-0.1l0-0.2l0-0.2l0.1-0.1l3.3-3.3l0.1-0.1l0.2,0l0.2,0l0.1,0.1l0.6,0.6l0.1,0.1l0,0.2
				l0,0.2l-0.1,0.1l-3.3,3.3l-0.1,0.1l-0.2,0l-0.2,0L138,216L137.4,215.4z"/>
			<path class="st2" d="M147.4,205.5l-0.1-0.1l0-0.2l0-0.2l0.1-0.1l3.3-3.3l0.1-0.1l0.2,0l0.2,0l0.1,0.1l0.6,0.6l0.1,0.1l0,0.2
				l0,0.2l-0.1,0.1l-3.3,3.3l-0.1,0.1l-0.2,0l-0.2,0l-0.1-0.1L147.4,205.5z"/>
			<path class="st2" d="M144.8,202.9l-0.1-0.1l0-0.2l0-0.2l0.1-0.1l3.3-3.3l0.1-0.1l0.2,0l0.2,0l0.1,0.1l0.6,0.6l0.1,0.1l0,0.2
				l0,0.2l-0.1,0.1l-3.3,3.3l-0.1,0.1l-0.2,0l-0.2,0l-0.1-0.1L144.8,202.9z"/>
			<path class="st2" d="M142.3,200.4l-0.1-0.1l0-0.2l0-0.2l0.1-0.1l3.3-3.3l0.1-0.1l0.2,0l0.2,0l0.1,0.1l0.6,0.6l0.1,0.1l0,0.2
				l0,0.2l-0.1,0.1l-3.3,3.3l-0.1,0.1l-0.2,0l-0.2,0l-0.1-0.1L142.3,200.4z"/>
			<path class="st2" d="M139.7,197.9l-0.1-0.1l0-0.2l0-0.2l0.1-0.1l3.3-3.3l0.1-0.1l0.2,0l0.2,0l0.1,0.1l0.6,0.6l0.1,0.1l0,0.2
				l0,0.2l-0.1,0.1l-3.3,3.3l-0.1,0.1l-0.2,0l-0.2,0l-0.1-0.1L139.7,197.9z"/>
		</g>
		<g>
			<path class="st2" d="M114.7,220.2l0.1,0.3l0,0.3l-0.1,0.3l-0.2,0.2l-1.7,1.2l-0.3,0.1l-0.3,0l-0.3-0.1l-0.2-0.2l-4.7-6.5
				l-0.1-0.3l0-0.3l0.1-0.3l0.2-0.2l1.7-1.2l0.3-0.1l0.3,0l0.3,0.1l0.2,0.2L114.7,220.2z"/>
			<path class="st2" d="M101.1,230.1l0.1,0.3l0,0.3l-0.1,0.3l-0.2,0.2l-1.7,1.2l-0.3,0.1l-0.3,0l-0.3-0.1l-0.2-0.2l-4.7-6.5
				l-0.1-0.3l0-0.3l0.1-0.3l0.2-0.2l1.7-1.2l0.3-0.1l0.3,0l0.3,0.1l0.2,0.2L101.1,230.1z"/>
		</g>
		<g>
			<path class="st2" d="M83.2,267.4l2,2l-7.2,7.2l-2-2L83.2,267.4z"/>
			<path class="st2" d="M79.8,263.9l2,2l-7.2,7.2l-2-2L79.8,263.9z"/>
			<path class="st2" d="M76.4,260.5l2,2l-7.2,7.2l-2-2L76.4,260.5z"/>
			<path class="st2" d="M99.2,237.7l2,2l-7.2,7.2l-2-2L99.2,237.7z"/>
			<path class="st2" d="M102.6,241.1l2,2l-7.2,7.2l-2-2L102.6,241.1z"/>
			<path class="st2" d="M106,244.5l2,2l-7.2,7.2l-2-2L106,244.5z"/>
			<circle class="st3" cx="88.6" cy="257.1" r="8.4"/>
		</g>
		<g>
			<path class="st2" d="M179.7,109.9l-0.2-0.1l-0.1-0.1l-0.1-0.2l0-0.2l0.5-3.3l0.1-0.2l0.1-0.1l0.2-0.1l0.2,0l0.8,0.1l0.2,0.1
				l0.1,0.1l0.1,0.2l0,0.2l-0.5,3.3l-0.1,0.2l-0.1,0.1l-0.2,0.1l-0.2,0L179.7,109.9z"/>
			<path class="st2" d="M185.1,110.8l-0.2-0.1l-0.1-0.1l-0.1-0.2l0-0.2l0.5-3.3l0.1-0.2l0.1-0.1l0.2-0.1l0.2,0l0.8,0.1l0.2,0.1
				l0.1,0.1l0.1,0.2l0,0.2l-0.5,3.3l-0.1,0.2l-0.1,0.1l-0.2,0.1l-0.2,0L185.1,110.8z"/>
			<path class="st2" d="M183.2,105.1l-0.2-0.1l-0.1-0.1l-0.1-0.2l0-0.2l0.5-3.3l0.1-0.2l0.1-0.1l0.2-0.1l0.2,0l0.8,0.1l0.2,0.1
				l0.1,0.1l0.1,0.2l0,0.2l-0.5,3.3l-0.1,0.2l-0.1,0.1l-0.2,0.1l-0.2,0L183.2,105.1z"/>
		</g>
		<g>
			<path class="st2" d="M231.1,125.6l-0.1-0.3l0-0.3l0.1-0.3l0.2-0.2l1.7-1.2l0.3-0.1l0.3,0l0.3,0.1l0.2,0.2l4.7,6.5l0.1,0.3l0,0.3
				l-0.1,0.3l-0.2,0.2l-1.7,1.2l-0.3,0.1l-0.3,0l-0.3-0.1l-0.2-0.2L231.1,125.6z"/>
			<path class="st2" d="M244.7,115.7l-0.1-0.3l0-0.3l0.1-0.3l0.2-0.2l1.7-1.2l0.3-0.1l0.3,0l0.3,0.1l0.2,0.2l4.7,6.5l0.1,0.3l0,0.3
				l-0.1,0.3l-0.2,0.2l-1.7,1.2l-0.3,0.1l-0.3,0l-0.3-0.1l-0.2-0.2L244.7,115.7z"/>
		</g>
		<g>
			<path class="st2" d="M235.9,179.7l0.1-0.2l0.1-0.1l0.2-0.1l0.2,0l3.3,0.5l0.2,0.1l0.1,0.1l0.1,0.2l0,0.2l-0.1,0.8l-0.1,0.2
				l-0.1,0.1l-0.2,0.1l-0.2,0l-3.3-0.5L236,181l-0.1-0.1l-0.1-0.2l0-0.2L235.9,179.7z"/>
			<path class="st2" d="M235.1,185.1l0.1-0.2l0.1-0.1l0.2-0.1l0.2,0l3.3,0.5l0.2,0.1l0.1,0.1l0.1,0.2l0,0.2l-0.1,0.8l-0.1,0.2
				l-0.1,0.1l-0.2,0.1l-0.2,0l-3.3-0.5l-0.2-0.1l-0.1-0.1l-0.1-0.2l0-0.2L235.1,185.1z"/>
			<path class="st2" d="M240.7,183.2l0.1-0.2l0.1-0.1l0.2-0.1l0.2,0l3.3,0.5l0.2,0.1l0.1,0.1l0.1,0.2l0,0.2l-0.1,0.8l-0.1,0.2
				l-0.1,0.1l-0.2,0.1l-0.2,0l-3.3-0.5l-0.2-0.1l-0.1-0.1l-0.1-0.2l0-0.2L240.7,183.2z"/>
		</g>
		<g>
			<path class="st2" d="M88.4,206l-0.1-0.3l0.1-0.3l0.2-0.2l0.2-0.2l1.6-0.7l0.3-0.1l0.3,0.1l0.2,0.2l0.2,0.2l1.4,3.3l0.1,0.3
				l-0.1,0.3l-0.2,0.2l-0.2,0.2l-1.6,0.7l-0.3,0.1l-0.3-0.1l-0.2-0.2l-0.2-0.2L88.4,206z"/>
			<path class="st2" d="M96,202.8l-0.1-0.3l0.1-0.3l0.2-0.2l0.2-0.2l1.6-0.7l0.3-0.1l0.3,0.1l0.2,0.2l0.2,0.2l1.4,3.3l0.1,0.3
				l-0.1,0.3l-0.2,0.2l-0.2,0.2l-1.6,0.7l-0.3,0.1l-0.3-0.1l-0.2-0.2l-0.2-0.2L96,202.8z"/>
		</g>
		<g>
			<path class="st2" d="M247.5,180.6l0.1-0.3l0.2-0.2l0.3-0.1l0.3,0l2,0.3l0.3,0.1l0.2,0.2l0.1,0.3l0,0.3l-1.3,8l-0.1,0.3l-0.2,0.2
				l-0.3,0.1l-0.3,0l-2-0.3l-0.3-0.1l-0.2-0.2l-0.1-0.3l0-0.3L247.5,180.6z"/>
			<path class="st2" d="M264.1,183.3l0.1-0.3l0.2-0.2l0.3-0.1l0.3,0l2,0.3l0.3,0.1l0.2,0.2l0.1,0.3l0,0.3l-1.3,8l-0.1,0.3l-0.2,0.2
				l-0.3,0.1l-0.3,0l-2-0.3l-0.3-0.1l-0.2-0.2l-0.1-0.3l0-0.3L264.1,183.3z"/>
		</g>
		<g>
			<path class="st2" d="M169.4,231.7l0-0.2l0.1-0.2l0.2-0.1l0.2,0h1.1l0.2,0l0.2,0.1l0.1,0.2l0,0.2v1.6l0,0.2l-0.1,0.2l-0.2,0.1
				l-0.2,0H170l-0.2,0l-0.2-0.1l-0.1-0.2l0-0.2V231.7z"/>
			<path class="st2" d="M174.1,231.7l0-0.2l0.1-0.2l0.2-0.1l0.2,0h1.1l0.2,0l0.2,0.1l0.1,0.2l0,0.2v1.6l0,0.2l-0.1,0.2l-0.2,0.1
				l-0.2,0h-1.1l-0.2,0l-0.2-0.1l-0.1-0.2l0-0.2V231.7z"/>
		</g>
		<g>
			<path class="st2" d="M231.7,176.4l-0.2,0l-0.2-0.1l-0.1-0.2l0-0.2v-1.1l0-0.2l0.1-0.2l0.2-0.1l0.2,0h1.6l0.2,0l0.2,0.1l0.1,0.2
				l0,0.2v1.1l0,0.2l-0.1,0.2l-0.2,0.1l-0.2,0H231.7z"/>
			<path class="st2" d="M231.7,171.7l-0.2,0l-0.2-0.1l-0.1-0.2l0-0.2V170l0-0.2l0.1-0.2l0.2-0.1l0.2,0h1.6l0.2,0l0.2,0.1l0.1,0.2
				l0,0.2v1.1l0,0.2l-0.1,0.2l-0.2,0.1l-0.2,0H231.7z"/>
		</g>
		<g>
			<path class="st2" d="M207.8,216l-0.1,0.1l-0.2,0l-0.2,0l-0.1-0.1l-3.3-3.3l-0.1-0.1l0-0.2l0-0.2l0.1-0.1l0.6-0.6l0.1-0.1l0.2,0
				l0.2,0l0.1,0.1l3.3,3.3l0.1,0.1l0,0.2l0,0.2l-0.1,0.1L207.8,216z"/>
			<path class="st2" d="M210.3,213.5l-0.1,0.1l-0.2,0l-0.2,0l-0.1-0.1l-3.3-3.3l-0.1-0.1l0-0.2l0-0.2l0.1-0.1l0.6-0.6l0.1-0.1l0.2,0
				l0.2,0l0.1,0.1l3.3,3.3l0.1,0.1l0,0.2l0,0.2l-0.1,0.1L210.3,213.5z"/>
			<path class="st2" d="M212.9,210.9l-0.1,0.1l-0.2,0l-0.2,0l-0.1-0.1l-3.3-3.3l-0.1-0.1l0-0.2l0-0.2l0.1-0.1l0.6-0.6l0.1-0.1l0.2,0
				l0.2,0l0.1,0.1l3.3,3.3l0.1,0.1l0,0.2l0,0.2l-0.1,0.1L212.9,210.9z"/>
			<path class="st2" d="M215.4,208.4l-0.1,0.1l-0.2,0l-0.2,0l-0.1-0.1l-3.3-3.3l-0.1-0.1l0-0.2l0-0.2l0.1-0.1l0.6-0.6l0.1-0.1l0.2,0
				l0.2,0l0.1,0.1l3.3,3.3l0.1,0.1l0,0.2l0,0.2l-0.1,0.1L215.4,208.4z"/>
			<path class="st2" d="M205.5,198.5l-0.1,0.1l-0.2,0l-0.2,0l-0.1-0.1l-3.3-3.3l-0.1-0.1l0-0.2l0-0.2l0.1-0.1l0.6-0.6l0.1-0.1l0.2,0
				l0.2,0l0.1,0.1l3.3,3.3l0.1,0.1l0,0.2l0,0.2l-0.1,0.1L205.5,198.5z"/>
			<path class="st2" d="M202.9,201l-0.1,0.1l-0.2,0l-0.2,0l-0.1-0.1l-3.3-3.3l-0.1-0.1l0-0.2l0-0.2l0.1-0.1l0.6-0.6l0.1-0.1l0.2,0
				l0.2,0l0.1,0.1l3.3,3.3l0.1,0.1l0,0.2l0,0.2l-0.1,0.1L202.9,201z"/>
			<path class="st2" d="M200.4,203.6l-0.1,0.1l-0.2,0l-0.2,0l-0.1-0.1l-3.3-3.3l-0.1-0.1l0-0.2l0-0.2l0.1-0.1l0.6-0.6l0.1-0.1l0.2,0
				l0.2,0l0.1,0.1l3.3,3.3l0.1,0.1l0,0.2l0,0.2l-0.1,0.1L200.4,203.6z"/>
			<path class="st2" d="M197.9,206.1l-0.1,0.1l-0.2,0l-0.2,0l-0.1-0.1l-3.3-3.3l-0.1-0.1l0-0.2l0-0.2l0.1-0.1l0.6-0.6l0.1-0.1l0.2,0
				l0.2,0l0.1,0.1l3.3,3.3l0.1,0.1l0,0.2l0,0.2l-0.1,0.1L197.9,206.1z"/>
		</g>
		<g>
			<path class="st2" d="M210.3,127.4l-0.2,0.1l-0.2,0.1l-0.2,0l-0.2-0.1l-0.9-0.7l-0.1-0.2l-0.1-0.2l0-0.2l0.1-0.2l0.9-1.3l0.2-0.2
				l0.2-0.1l0.2,0l0.2,0.1l0.9,0.7l0.2,0.2l0.1,0.2l0,0.2l-0.1,0.2L210.3,127.4z"/>
			<path class="st2" d="M206.5,124.7l-0.2,0.2l-0.2,0.1l-0.2,0l-0.2-0.1l-0.9-0.7l-0.1-0.2l-0.1-0.2l0-0.2l0.1-0.2l0.9-1.3l0.2-0.1
				l0.2-0.1l0.2,0l0.2,0.1l0.9,0.7l0.1,0.2l0.1,0.2l0,0.2l-0.1,0.2L206.5,124.7z"/>
		</g>
		<g>
			<path class="st2" d="M164.4,168.7l0.3,0.1l0.2,0.2l0.2,0.2l0.1,0.3v1.4l-0.1,0.3l-0.2,0.2l-0.2,0.2l-0.3,0.1h-14.2l-0.3-0.1
				l-0.2-0.2l-0.2-0.2l-0.1-0.3v-1.4l0.1-0.3l0.2-0.2l0.2-0.2l0.3-0.1H164.4z"/>
			<path class="st2" d="M164.4,174.3l0.3,0.1l0.2,0.2l0.2,0.2l0.1,0.3v1.4l-0.1,0.3l-0.2,0.2l-0.2,0.2l-0.3,0.1h-14.2l-0.3-0.1
				l-0.2-0.2l-0.2-0.2l-0.1-0.3V175l0.1-0.3l0.2-0.2l0.2-0.2l0.3-0.1H164.4z"/>
			<path class="st2" d="M167.2,161l0.3,0.1l0.2,0.2l0.2,0.2l0.1,0.3v3.1l-0.1,0.3l-0.2,0.2l-0.2,0.2l-0.3,0.1h-7.1l-0.3-0.1
				l-0.2-0.2l-0.2-0.2l-0.1-0.3v-3.1l0.1-0.3l0.2-0.2l0.2-0.2l0.3-0.1H167.2z"/>
			<path class="st2" d="M167.2,180.3l0.3,0.1l0.2,0.2l0.2,0.2l0.1,0.3v3.1l-0.1,0.3l-0.2,0.2l-0.2,0.2l-0.3,0.1h-7.1l-0.3-0.1
				l-0.2-0.2l-0.2-0.2l-0.1-0.3V181l0.1-0.3l0.2-0.2l0.2-0.2l0.3-0.1H167.2z"/>
		</g>
		<g>
			<path class="st2" d="M188.7,221.6l0.3,0l0.3,0.1l0.2,0.2l0.1,0.2l0.4,1.4l0,0.3L190,224l-0.2,0.2l-0.2,0.1l-2.6,0.8l-0.3,0
				l-0.3-0.1l-0.2-0.2l-0.1-0.2l-0.4-1.4l0-0.3l0.1-0.3l0.2-0.2l0.2-0.1L188.7,221.6z"/>
			<path class="st2" d="M190.3,226.8l0.3,0l0.3,0.1l0.2,0.2l0.1,0.2l0.4,1.4l0,0.3l-0.1,0.3l-0.2,0.2l-0.2,0.1l-2.6,0.8l-0.3,0
				l-0.3-0.1l-0.2-0.2l-0.1-0.2l-0.4-1.4l0-0.3l0.1-0.3l0.2-0.2l0.2-0.1L190.3,226.8z"/>
		</g>
		<g>
			<path class="st2" d="M180.6,98.3l-0.3-0.1l-0.2-0.2l-0.1-0.3l0-0.3l0.3-2l0.1-0.3l0.2-0.2l0.3-0.1l0.3,0l8,1.3l0.3,0.1l0.2,0.2
				l0.1,0.3l0,0.3l-0.3,2l-0.1,0.3l-0.2,0.2l-0.3,0.1l-0.3,0L180.6,98.3z"/>
			<path class="st2" d="M183.3,81.7l-0.3-0.1l-0.2-0.2l-0.1-0.3l0-0.3l0.3-2l0.1-0.3l0.2-0.2l0.3-0.1l0.3,0l8,1.3l0.3,0.1l0.2,0.2
				l0.1,0.3l0,0.3l-0.3,2l-0.1,0.3l-0.2,0.2l-0.3,0.1l-0.3,0L183.3,81.7z"/>
		</g>
		<g>
			<path class="st2" d="M178.7,117.8l0.2,0l0.1,0.1l0.1,0.1l0,0.2v4.7l0,0.2l-0.1,0.1l-0.1,0.1l-0.2,0h-0.9l-0.2,0l-0.1-0.1
				l-0.1-0.1l0-0.2v-4.7l0-0.2l0.1-0.1l0.1-0.1l0.2,0H178.7z"/>
			<path class="st2" d="M175.1,117.8l0.2,0l0.1,0.1l0.1,0.1l0,0.2v4.7l0,0.2l-0.1,0.1l-0.1,0.1l-0.2,0h-0.9l-0.2,0l-0.1-0.1
				l-0.1-0.1l0-0.2v-4.7l0-0.2l0.1-0.1l0.1-0.1l0.2,0H175.1z"/>
			<path class="st2" d="M171.5,117.8l0.2,0l0.1,0.1l0.1,0.1l0,0.2v4.7l0,0.2l-0.1,0.1l-0.1,0.1l-0.2,0h-0.9l-0.2,0l-0.1-0.1
				l-0.1-0.1l0-0.2v-4.7l0-0.2l0.1-0.1l0.1-0.1l0.2,0H171.5z"/>
			<path class="st2" d="M167.9,117.8l0.2,0l0.1,0.1l0.1,0.1l0,0.2v4.7l0,0.2l-0.1,0.1l-0.1,0.1l-0.2,0h-0.9l-0.2,0l-0.1-0.1
				l-0.1-0.1l0-0.2v-4.7l0-0.2l0.1-0.1l0.1-0.1l0.2,0H167.9z"/>
			<path class="st2" d="M167.9,131.8l0.2,0l0.1,0.1l0.1,0.1l0,0.2v4.7l0,0.2l-0.1,0.1l-0.1,0.1l-0.2,0h-0.9l-0.2,0l-0.1-0.1
				l-0.1-0.1l0-0.2v-4.7l0-0.2l0.1-0.1l0.1-0.1l0.2,0H167.9z"/>
			<path class="st2" d="M171.5,131.8l0.2,0l0.1,0.1l0.1,0.1l0,0.2v4.7l0,0.2l-0.1,0.1l-0.1,0.1l-0.2,0h-0.9l-0.2,0l-0.1-0.1
				l-0.1-0.1l0-0.2v-4.7l0-0.2l0.1-0.1l0.1-0.1l0.2,0H171.5z"/>
			<path class="st2" d="M175.1,131.8l0.2,0l0.1,0.1l0.1,0.1l0,0.2v4.7l0,0.2l-0.1,0.1l-0.1,0.1l-0.2,0h-0.9l-0.2,0l-0.1-0.1
				l-0.1-0.1l0-0.2v-4.7l0-0.2l0.1-0.1l0.1-0.1l0.2,0H175.1z"/>
			<path class="st2" d="M178.7,131.8l0.2,0l0.1,0.1l0.1,0.1l0,0.2v4.7l0,0.2l-0.1,0.1l-0.1,0.1l-0.2,0h-0.9l-0.2,0l-0.1-0.1
				l-0.1-0.1l0-0.2v-4.7l0-0.2l0.1-0.1l0.1-0.1l0.2,0H178.7z"/>
		</g>
		<g>
			<path class="st2" d="M221.6,157.1l0-0.3l0.1-0.3l0.2-0.2l0.2-0.1l1.4-0.4l0.3,0l0.3,0.1l0.2,0.2l0.1,0.2l0.8,2.6l0,0.3l-0.1,0.3
				l-0.2,0.2l-0.2,0.1l-1.4,0.4l-0.3,0l-0.3-0.1l-0.2-0.2l-0.1-0.2L221.6,157.1z"/>
			<path class="st2" d="M226.8,155.6l0-0.3l0.1-0.3l0.2-0.2l0.2-0.1l1.4-0.4l0.3,0l0.3,0.1l0.2,0.2l0.1,0.2l0.8,2.6l0,0.3l-0.1,0.3
				l-0.2,0.2l-0.2,0.1l-1.4,0.4l-0.3,0l-0.3-0.1l-0.2-0.2l-0.1-0.2L226.8,155.6z"/>
		</g>
		<g>
			<path class="st2" d="M128.9,212l0.2-0.1l0.2,0l0.2,0l0.2,0.1l0.8,0.8l0.1,0.2l0,0.2l0,0.2l-0.1,0.2l-1.1,1.1l-0.2,0.1l-0.2,0
				l-0.2,0l-0.2-0.1l-0.8-0.8l-0.1-0.2l0-0.2l0-0.2l0.1-0.2L128.9,212z"/>
			<path class="st2" d="M132.2,215.3l0.2-0.1l0.2,0l0.2,0l0.2,0.1l0.8,0.8l0.1,0.2l0,0.2l0,0.2l-0.1,0.2l-1.1,1.1l-0.2,0.1l-0.2,0
				l-0.2,0l-0.2-0.1l-0.8-0.8L131,217l0-0.2l0-0.2l0.1-0.2L132.2,215.3z"/>
		</g>
		<g>
			<path class="st2" d="M236.2,169.8l0-0.2l0.1-0.1l0.1-0.1l0.2,0h3.3l0.2,0l0.1,0.1l0.1,0.1l0,0.2v0.9l0,0.2l-0.1,0.1l-0.1,0.1
				l-0.2,0h-3.3l-0.2,0l-0.1-0.1l-0.1-0.1l0-0.2V169.8z"/>
			<path class="st2" d="M236.2,175.2l0-0.2l0.1-0.1l0.1-0.1l0.2,0h3.3l0.2,0l0.1,0.1l0.1,0.1l0,0.2v0.9l0,0.2l-0.1,0.1l-0.1,0.1
				l-0.2,0h-3.3l-0.2,0l-0.1-0.1l-0.1-0.1l0-0.2V175.2z"/>
			<path class="st2" d="M241.5,172.5l0-0.2l0.1-0.1l0.1-0.1l0.2,0h3.3l0.2,0l0.1,0.1l0.1,0.1l0,0.2v0.9l0,0.2l-0.1,0.1l-0.1,0.1
				l-0.2,0h-3.3l-0.2,0l-0.1-0.1l-0.1-0.1l0-0.2V172.5z"/>
		</g>
		<g>
			<path class="st2" d="M123.3,204.6l0.2-0.1l0.2,0l0.2,0.1l0.2,0.1l0.7,0.9l0.1,0.2l0,0.2l-0.1,0.2l-0.2,0.2l-1.3,0.9l-0.2,0.1
				l-0.2,0l-0.2-0.1l-0.2-0.1l-0.7-0.9l-0.1-0.2l0-0.2l0.1-0.2l0.1-0.2L123.3,204.6z"/>
			<path class="st2" d="M126.1,208.4l0.2-0.1l0.2,0l0.2,0.1l0.2,0.1l0.7,0.9l0.1,0.2l0,0.2l-0.1,0.2l-0.1,0.2l-1.3,0.9l-0.2,0.1
				l-0.2,0l-0.2-0.1l-0.2-0.2l-0.7-0.9l-0.1-0.2l0-0.2l0.1-0.2l0.2-0.2L126.1,208.4z"/>
		</g>
		<g>
			<path class="st2" d="M117.1,122.8l-0.2,0.2l-0.3,0.1l-0.3-0.1l-0.2-0.2l-1.5-1.5l-0.2-0.2l-0.1-0.3l0.1-0.3l0.2-0.2l5.7-5.7
				l0.2-0.2l0.3-0.1l0.3,0.1l0.2,0.2l1.5,1.5l0.2,0.2l0.1,0.3l-0.1,0.3l-0.2,0.2L117.1,122.8z"/>
			<path class="st2" d="M105.2,110.9l-0.2,0.2l-0.3,0.1l-0.3-0.1l-0.2-0.2l-1.5-1.5l-0.2-0.2l-0.1-0.3l0.1-0.3l0.2-0.2l5.7-5.7
				l0.2-0.2l0.3-0.1l0.3,0.1l0.2,0.2l1.5,1.5l0.2,0.2l0.1,0.3l-0.1,0.3l-0.2,0.2L105.2,110.9z"/>
		</g>
		<g>
			<path class="st2" d="M123.5,212.6l0.1,0.2l0,0.2l-0.1,0.2l-0.1,0.1l-2.7,2l-0.2,0.1l-0.2,0l-0.2-0.1l-0.1-0.1l-0.5-0.7l-0.1-0.2
				l0-0.2l0.1-0.2l0.1-0.1l2.7-2l0.2-0.1l0.2,0l0.2,0.1l0.1,0.1L123.5,212.6z"/>
			<path class="st2" d="M120.4,208.3l0.1,0.2l0,0.2l-0.1,0.2l-0.1,0.1l-2.7,2l-0.2,0.1l-0.2,0l-0.2-0.1l-0.1-0.1l-0.5-0.7l-0.1-0.2
				l0-0.2l0.1-0.2l0.1-0.1l2.7-2l0.2-0.1l0.2,0l0.2,0.1l0.1,0.1L120.4,208.3z"/>
			<path class="st2" d="M117.7,213.6l0.1,0.2l0,0.2l-0.1,0.2l-0.1,0.1l-2.7,2l-0.2,0.1l-0.2,0l-0.2-0.1l-0.1-0.1l-0.5-0.7l-0.1-0.2
				l0-0.2l0.1-0.2l0.1-0.1l2.7-2l0.2-0.1l0.2,0l0.2,0.1l0.1,0.1L117.7,213.6z"/>
		</g>
		<g>
			<path class="st2" d="M110.9,185.9l0,0.2l-0.1,0.2l-0.1,0.1l-0.2,0.1l-3.3,0.5l-0.2,0l-0.2-0.1l-0.1-0.1l-0.1-0.2l-0.1-0.8l0-0.2
				l0.1-0.2l0.1-0.1l0.2-0.1l3.3-0.5l0.2,0l0.2,0.1l0.1,0.1l0.1,0.2L110.9,185.9z"/>
			<path class="st2" d="M110.1,180.6l0,0.2l-0.1,0.2l-0.1,0.1l-0.2,0.1l-3.3,0.5l-0.2,0l-0.2-0.1l-0.1-0.1l-0.1-0.2l-0.1-0.8l0-0.2
				l0.1-0.2l0.1-0.1l0.2-0.1l3.3-0.5l0.2,0l0.2,0.1l0.1,0.1l0.1,0.2L110.1,180.6z"/>
			<path class="st2" d="M105.2,184.1l0,0.2l-0.1,0.2l-0.1,0.1l-0.2,0.1l-3.3,0.5l-0.2,0l-0.2-0.1l-0.1-0.1l-0.1-0.2l-0.1-0.8l0-0.2
				l0.1-0.2l0.1-0.1l0.2-0.1l3.3-0.5l0.2,0l0.2,0.1l0.1,0.1l0.1,0.2L105.2,184.1z"/>
		</g>
		<g>
			<path class="st2" d="M167.2,114.3l0,0.2l-0.1,0.2l-0.2,0.1l-0.2,0.1l-1.1,0.2l-0.2,0l-0.2-0.1l-0.1-0.2l-0.1-0.2l-0.2-1.5l0-0.2
				l0.1-0.2l0.2-0.2l0.2-0.1l1.1-0.2l0.2,0l0.2,0.1l0.2,0.2l0.1,0.2L167.2,114.3z"/>
			<path class="st2" d="M162.5,115.1l0,0.2l-0.1,0.2l-0.2,0.2l-0.2,0.1l-1.1,0.2l-0.2,0l-0.2-0.1l-0.2-0.2l-0.1-0.2l-0.2-1.5l0-0.2
				l0.1-0.2l0.2-0.2l0.2-0.1l1.1-0.2l0.2,0l0.2,0.1l0.2,0.2l0.1,0.2L162.5,115.1z"/>
		</g>
		<g>
			<path class="st2" d="M246.3,157.2l0-0.3l0.1-0.3l0.2-0.2l0.3-0.1l2-0.3l0.3,0l0.3,0.1l0.2,0.2l0.1,0.3l1.3,8l0,0.3l-0.1,0.3
				l-0.2,0.2l-0.3,0.1l-2,0.3l-0.3,0l-0.3-0.1l-0.2-0.2l-0.1-0.3L246.3,157.2z"/>
			<path class="st2" d="M262.9,154.6l0-0.3l0.1-0.3l0.2-0.2l0.3-0.1l2-0.3l0.3,0l0.3,0.1l0.2,0.2l0.1,0.3l1.3,8l0,0.3l-0.1,0.3
				l-0.2,0.2l-0.3,0.1l-2,0.3l-0.3,0l-0.3-0.1l-0.2-0.2l-0.1-0.3L262.9,154.6z"/>
		</g>
		<g>
			<path class="st2" d="M117.8,167.1l0-0.2l0.1-0.1l0.1-0.1l0.2,0h4.7l0.2,0l0.1,0.1l0.1,0.1l0,0.2v0.9l0,0.2l-0.1,0.1l-0.1,0.1
				l-0.2,0h-4.7l-0.2,0l-0.1-0.1l-0.1-0.1l0-0.2V167.1z"/>
			<path class="st2" d="M117.8,170.7l0-0.2l0.1-0.1l0.1-0.1l0.2,0h4.7l0.2,0l0.1,0.1l0.1,0.1l0,0.2v0.9l0,0.2l-0.1,0.1l-0.1,0.1
				l-0.2,0h-4.7l-0.2,0l-0.1-0.1l-0.1-0.1l0-0.2V170.7z"/>
			<path class="st2" d="M117.8,174.3l0-0.2l0.1-0.1l0.1-0.1l0.2,0h4.7l0.2,0l0.1,0.1l0.1,0.1l0,0.2v0.9l0,0.2l-0.1,0.1l-0.1,0.1
				l-0.2,0h-4.7l-0.2,0l-0.1-0.1l-0.1-0.1l0-0.2V174.3z"/>
			<path class="st2" d="M117.8,177.9l0-0.2l0.1-0.1l0.1-0.1l0.2,0h4.7l0.2,0l0.1,0.1l0.1,0.1l0,0.2v0.9l0,0.2l-0.1,0.1l-0.1,0.1
				l-0.2,0h-4.7l-0.2,0l-0.1-0.1l-0.1-0.1l0-0.2V177.9z"/>
			<path class="st2" d="M131.8,177.9l0-0.2l0.1-0.1l0.1-0.1l0.2,0h4.7l0.2,0l0.1,0.1l0.1,0.1l0,0.2v0.9l0,0.2l-0.1,0.1l-0.1,0.1
				l-0.2,0h-4.7l-0.2,0l-0.1-0.1l-0.1-0.1l0-0.2V177.9z"/>
			<path class="st2" d="M131.8,174.3l0-0.2l0.1-0.1l0.1-0.1l0.2,0h4.7l0.2,0l0.1,0.1l0.1,0.1l0,0.2v0.9l0,0.2l-0.1,0.1l-0.1,0.1
				l-0.2,0h-4.7l-0.2,0l-0.1-0.1l-0.1-0.1l0-0.2V174.3z"/>
			<path class="st2" d="M131.8,170.7l0-0.2l0.1-0.1l0.1-0.1l0.2,0h4.7l0.2,0l0.1,0.1l0.1,0.1l0,0.2v0.9l0,0.2l-0.1,0.1l-0.1,0.1
				l-0.2,0h-4.7l-0.2,0l-0.1-0.1l-0.1-0.1l0-0.2V170.7z"/>
			<path class="st2" d="M131.8,167.1l0-0.2l0.1-0.1l0.1-0.1l0.2,0h4.7l0.2,0l0.1,0.1l0.1,0.1l0,0.2v0.9l0,0.2l-0.1,0.1l-0.1,0.1
				l-0.2,0h-4.7l-0.2,0l-0.1-0.1l-0.1-0.1l0-0.2V167.1z"/>
		</g>
		<g>
			<path class="st2" d="M130.4,219.9l0.1,0.1l0,0.2l0,0.2l-0.1,0.1l-2.4,2.4l-0.1,0.1l-0.2,0l-0.2,0l-0.1-0.1l-0.6-0.6l-0.1-0.1
				l0-0.2l0-0.2l0.1-0.1l2.4-2.4l0.1-0.1l0.2,0l0.2,0l0.1,0.1L130.4,219.9z"/>
			<path class="st2" d="M126.6,216.1l0.1,0.1l0,0.2l0,0.2l-0.1,0.1l-2.4,2.4l-0.1,0.1l-0.2,0l-0.2,0l-0.1-0.1l-0.6-0.6l-0.1-0.1
				l0-0.2l0-0.2l0.1-0.1l2.4-2.4l0.1-0.1l0.2,0l0.2,0l0.1,0.1L126.6,216.1z"/>
			<path class="st2" d="M124.7,221.7l0.1,0.1l0,0.2l0,0.2l-0.1,0.1l-2.4,2.4l-0.1,0.1l-0.2,0l-0.2,0l-0.1-0.1l-0.6-0.6l-0.1-0.1
				l0-0.2l0-0.2l0.1-0.1l2.4-2.4l0.1-0.1l0.2,0l0.2,0l0.1,0.1L124.7,221.7z"/>
		</g>
		<g>
			<path class="st2" d="M212,216.9l-0.1-0.2l0-0.2l0-0.2l0.1-0.2l0.8-0.8l0.2-0.1l0.2,0l0.2,0l0.2,0.1l1.1,1.1l0.1,0.2l0,0.2l0,0.2
				l-0.1,0.2l-0.8,0.8l-0.2,0.1l-0.2,0l-0.2,0l-0.2-0.1L212,216.9z"/>
			<path class="st2" d="M215.3,213.6l-0.1-0.2l0-0.2l0-0.2l0.1-0.2l0.8-0.8l0.2-0.1l0.2,0l0.2,0l0.2,0.1l1.1,1.1l0.1,0.2l0,0.2
				l0,0.2l-0.1,0.2l-0.8,0.8l-0.2,0.1l-0.2,0l-0.2,0l-0.2-0.1L215.3,213.6z"/>
		</g>
		<g>
			<path class="st2" d="M185.9,234.9l0.2,0l0.2,0.1l0.1,0.1l0.1,0.2l0.5,3.3l0,0.2l-0.1,0.2l-0.1,0.1l-0.2,0.1l-0.8,0.1l-0.2,0
				l-0.2-0.1l-0.1-0.1l-0.1-0.2l-0.5-3.3l0-0.2l0.1-0.2l0.1-0.1l0.2-0.1L185.9,234.9z"/>
			<path class="st2" d="M180.6,235.8l0.2,0l0.2,0.1l0.1,0.1l0.1,0.2l0.5,3.3l0,0.2l-0.1,0.2l-0.1,0.1l-0.2,0.1l-0.8,0.1l-0.2,0
				l-0.2-0.1l-0.1-0.1l-0.1-0.2l-0.5-3.3l0-0.2l0.1-0.2l0.1-0.1l0.2-0.1L180.6,235.8z"/>
			<path class="st2" d="M184.1,240.6l0.2,0l0.2,0.1l0.1,0.1l0.1,0.2l0.5,3.3l0,0.2l-0.1,0.2l-0.1,0.1l-0.2,0.1l-0.8,0.1l-0.2,0
				l-0.2-0.1l-0.1-0.1l-0.1-0.2l-0.5-3.3l0-0.2l0.1-0.2l0.1-0.1l0.2-0.1L184.1,240.6z"/>
		</g>
		<g>
			<path class="st2" d="M120.2,200.1l-0.1-0.3l0-0.3l0.1-0.2l0.2-0.2l1.3-0.7l0.3-0.1l0.3,0l0.2,0.1l0.2,0.2l1.2,2.2l0.1,0.3l0,0.3
				l-0.1,0.2l-0.2,0.2l-1.3,0.7l-0.3,0.1l-0.3,0l-0.2-0.1l-0.2-0.2L120.2,200.1z"/>
			<path class="st2" d="M124.7,197.6l-0.1-0.3l0-0.3l0.1-0.2l0.2-0.2l1.3-0.7l0.3-0.1l0.3,0l0.2,0.1l0.2,0.2l1.2,2.2l0.1,0.3l0,0.3
				l-0.1,0.2l-0.2,0.2l-1.3,0.7l-0.3,0.1l-0.3,0l-0.2-0.1l-0.2-0.2L124.7,197.6z"/>
		</g>
		<g>
			<path class="st2" d="M230.4,185.5l-0.2-0.1l-0.2-0.2l-0.1-0.2l0-0.2l0.2-1.1l0.1-0.2l0.2-0.2l0.2-0.1l0.2,0l1.5,0.2l0.2,0.1
				l0.2,0.2l0.1,0.2l0,0.2l-0.2,1.1l-0.1,0.2l-0.2,0.2l-0.2,0.1l-0.2,0L230.4,185.5z"/>
			<path class="st2" d="M231.1,180.9l-0.2-0.1l-0.2-0.1l-0.1-0.2l0-0.2l0.2-1.1l0.1-0.2l0.1-0.2l0.2-0.1l0.2,0l1.5,0.2l0.2,0.1
				l0.2,0.2l0.1,0.2l0,0.2l-0.2,1.1l-0.1,0.2l-0.2,0.2l-0.2,0.1l-0.2,0L231.1,180.9z"/>
		</g>
		<g>
			<path class="st2" d="M167.1,228l-0.2,0l-0.1-0.1l-0.1-0.1l0-0.2v-4.7l0-0.2l0.1-0.1l0.1-0.1l0.2,0h0.9l0.2,0l0.1,0.1l0.1,0.1
				l0,0.2v4.7l0,0.2l-0.1,0.1l-0.1,0.1l-0.2,0H167.1z"/>
			<path class="st2" d="M170.7,228l-0.2,0l-0.1-0.1l-0.1-0.1l0-0.2v-4.7l0-0.2l0.1-0.1l0.1-0.1l0.2,0h0.9l0.2,0l0.1,0.1l0.1,0.1
				l0,0.2v4.7l0,0.2l-0.1,0.1l-0.1,0.1l-0.2,0H170.7z"/>
			<path class="st2" d="M174.3,228l-0.2,0l-0.1-0.1l-0.1-0.1l0-0.2v-4.7l0-0.2l0.1-0.1l0.1-0.1l0.2,0h0.9l0.2,0l0.1,0.1l0.1,0.1
				l0,0.2v4.7l0,0.2l-0.1,0.1l-0.1,0.1l-0.2,0H174.3z"/>
			<path class="st2" d="M177.9,228l-0.2,0l-0.1-0.1l-0.1-0.1l0-0.2v-4.7l0-0.2l0.1-0.1l0.1-0.1l0.2,0h0.9l0.2,0l0.1,0.1l0.1,0.1
				l0,0.2v4.7l0,0.2l-0.1,0.1l-0.1,0.1l-0.2,0H177.9z"/>
			<path class="st2" d="M177.9,214l-0.2,0l-0.1-0.1l-0.1-0.1l0-0.2v-4.7l0-0.2l0.1-0.1l0.1-0.1l0.2,0h0.9l0.2,0l0.1,0.1l0.1,0.1
				l0,0.2v4.7l0,0.2l-0.1,0.1l-0.1,0.1l-0.2,0H177.9z"/>
			<path class="st2" d="M174.3,214l-0.2,0l-0.1-0.1l-0.1-0.1l0-0.2v-4.7l0-0.2l0.1-0.1l0.1-0.1l0.2,0h0.9l0.2,0l0.1,0.1l0.1,0.1
				l0,0.2v4.7l0,0.2l-0.1,0.1l-0.1,0.1l-0.2,0H174.3z"/>
			<path class="st2" d="M170.7,214l-0.2,0l-0.1-0.1l-0.1-0.1l0-0.2v-4.7l0-0.2l0.1-0.1l0.1-0.1l0.2,0h0.9l0.2,0l0.1,0.1l0.1,0.1
				l0,0.2v4.7l0,0.2l-0.1,0.1l-0.1,0.1l-0.2,0H170.7z"/>
			<path class="st2" d="M167.1,214l-0.2,0l-0.1-0.1l-0.1-0.1l0-0.2v-4.7l0-0.2l0.1-0.1l0.1-0.1l0.2,0h0.9l0.2,0l0.1,0.1l0.1,0.1
				l0,0.2v4.7l0,0.2l-0.1,0.1l-0.1,0.1l-0.2,0H167.1z"/>
		</g>
		<g>
			<path class="st2" d="M212.6,222.3l0.2-0.1l0.2,0l0.2,0.1l0.1,0.1l2,2.7l0.1,0.2l0,0.2l-0.1,0.2l-0.1,0.1l-0.7,0.5l-0.2,0.1
				l-0.2,0l-0.2-0.1l-0.1-0.1l-2-2.7l-0.1-0.2l0-0.2l0.1-0.2l0.1-0.1L212.6,222.3z"/>
			<path class="st2" d="M208.3,225.4l0.2-0.1l0.2,0l0.2,0.1l0.1,0.1l2,2.7l0.1,0.2l0,0.2l-0.1,0.2l-0.1,0.1l-0.7,0.5l-0.2,0.1
				l-0.2,0l-0.2-0.1l-0.1-0.1l-2-2.7l-0.1-0.2l0-0.2l0.1-0.2l0.1-0.1L208.3,225.4z"/>
			<path class="st2" d="M213.6,228.2l0.2-0.1l0.2,0l0.2,0.1l0.1,0.1l2,2.7l0.1,0.2l0,0.2l-0.1,0.2l-0.1,0.1l-0.7,0.5l-0.2,0.1
				l-0.2,0l-0.2-0.1l-0.1-0.1l-2-2.7l-0.1-0.2l0-0.2l0.1-0.2l0.1-0.1L213.6,228.2z"/>
		</g>
		<g>
			<path class="st2" d="M256.1,209.3l-0.2,0.2l-0.2,0.2l-0.3,0.1l-0.3-0.1l-1.6-0.7l-0.2-0.2l-0.2-0.2l-0.1-0.3l0.1-0.3l1.4-3.3
				l0.2-0.2l0.2-0.2l0.3-0.1l0.3,0.1l1.6,0.7l0.2,0.2l0.2,0.2l0.1,0.3l-0.1,0.3L256.1,209.3z"/>
			<path class="st2" d="M248.4,206.1l-0.2,0.2l-0.2,0.2l-0.3,0.1l-0.3-0.1l-1.6-0.7l-0.2-0.2l-0.2-0.2l-0.1-0.3l0.1-0.3l1.4-3.3
				l0.2-0.2l0.2-0.2l0.3-0.1l0.3,0.1l1.6,0.7l0.2,0.2l0.2,0.2l0.1,0.3l-0.1,0.3L248.4,206.1z"/>
		</g>
		<g>
			<path class="st2" d="M223,117.1l-0.2-0.2l-0.1-0.3l0.1-0.3l0.2-0.2l1.5-1.5l0.2-0.2l0.3-0.1l0.3,0.1l0.2,0.2l5.7,5.7l0.2,0.2
				l0.1,0.3l-0.1,0.3l-0.2,0.2l-1.5,1.5l-0.2,0.2l-0.3,0.1L229,123l-0.2-0.2L223,117.1z"/>
			<path class="st2" d="M234.9,105.2l-0.2-0.2l-0.1-0.3l0.1-0.3l0.2-0.2l1.5-1.5l0.2-0.2l0.3-0.1l0.3,0.1l0.2,0.2l5.7,5.7l0.2,0.2
				l0.1,0.3l-0.1,0.3l-0.2,0.2l-1.5,1.5l-0.2,0.2l-0.3,0.1l-0.3-0.1l-0.2-0.2L234.9,105.2z"/>
		</g>
		<g>
			<path class="st2" d="M225.9,207.6l0.1-0.1l0.2-0.1l0.2,0l0.2,0.1l2.7,2l0.1,0.1l0.1,0.2l0,0.2l-0.1,0.2l-0.5,0.7l-0.1,0.1
				l-0.2,0.1l-0.2,0l-0.2-0.1l-2.7-2l-0.1-0.1l-0.1-0.2l0-0.2l0.1-0.2L225.9,207.6z"/>
			<path class="st2" d="M222.8,211.9l0.1-0.1l0.2-0.1l0.2,0l0.2,0.1l2.7,2l0.1,0.1l0.1,0.2l0,0.2l-0.1,0.2l-0.5,0.7l-0.1,0.1
				l-0.2,0.1l-0.2,0l-0.2-0.1l-2.7-2l-0.1-0.1l-0.1-0.2l0-0.2l0.1-0.2L222.8,211.9z"/>
			<path class="st2" d="M228.7,212.9l0.1-0.1l0.2-0.1l0.2,0l0.2,0.1l2.7,2l0.1,0.1l0.1,0.2l0,0.2l-0.1,0.2l-0.5,0.7l-0.1,0.1
				l-0.2,0.1l-0.2,0l-0.2-0.1l-2.7-2l-0.1-0.1l-0.1-0.2l0-0.2l0.1-0.2L228.7,212.9z"/>
		</g>
		<g>
			<path class="st2" d="M124.2,188.7l0,0.3l-0.1,0.3l-0.2,0.2l-0.2,0.1l-1.4,0.4l-0.3,0l-0.3-0.1l-0.2-0.2l-0.1-0.2l-0.8-2.6l0-0.3
				l0.1-0.3l0.2-0.2l0.2-0.1l1.4-0.4l0.3,0l0.3,0.1l0.2,0.2l0.1,0.2L124.2,188.7z"/>
			<path class="st2" d="M119.1,190.3l0,0.3l-0.1,0.3l-0.2,0.2l-0.2,0.1l-1.4,0.4l-0.3,0l-0.3-0.1l-0.2-0.2l-0.1-0.2l-0.8-2.6l0-0.3
				l0.1-0.3l0.2-0.2l0.2-0.1l1.4-0.4l0.3,0l0.3,0.1l0.2,0.2l0.1,0.2L119.1,190.3z"/>
		</g>
		<g>
			<path class="st2" d="M216.9,133.8l-0.2,0.1l-0.2,0l-0.2,0l-0.2-0.1l-0.8-0.8l-0.1-0.2l0-0.2l0-0.2l0.1-0.2l1.1-1.1l0.2-0.1l0.2,0
				l0.2,0l0.2,0.1l0.8,0.8l0.1,0.2l0,0.2l0,0.2l-0.1,0.2L216.9,133.8z"/>
			<path class="st2" d="M213.6,130.5l-0.2,0.1l-0.2,0l-0.2,0l-0.2-0.1l-0.8-0.8l-0.1-0.2l0-0.2l0-0.2l0.1-0.2l1.1-1.1l0.2-0.1l0.2,0
				l0.2,0l0.2,0.1l0.8,0.8l0.1,0.2l0,0.2l0,0.2l-0.1,0.2L213.6,130.5z"/>
		</g>
		<g>
			<path class="st2" d="M115.4,160.3l0.2,0.1l0.2,0.2l0.1,0.2l0,0.2l-0.2,1.1l-0.1,0.2l-0.2,0.2l-0.2,0.1l-0.2,0l-1.5-0.2l-0.2-0.1
				l-0.2-0.2l-0.1-0.2l0-0.2l0.2-1.1l0.1-0.2l0.2-0.2l0.2-0.1l0.2,0L115.4,160.3z"/>
			<path class="st2" d="M114.7,164.9l0.2,0.1l0.2,0.1l0.1,0.2l0,0.2l-0.2,1.1l-0.1,0.2l-0.1,0.2l-0.2,0.1l-0.2,0l-1.5-0.2l-0.2-0.1
				l-0.2-0.2l-0.1-0.2l0-0.2l0.2-1.1l0.1-0.2l0.2-0.2l0.2-0.1l0.2,0L114.7,164.9z"/>
		</g>
		<g>
			<path class="st2" d="M206,257.5l-0.3,0.1l-0.3-0.1l-0.2-0.2l-0.2-0.2l-0.7-1.6l-0.1-0.3l0.1-0.3l0.2-0.2l0.2-0.2l3.3-1.4l0.3-0.1
				l0.3,0.1l0.2,0.2l0.2,0.2l0.7,1.6l0.1,0.3l-0.1,0.3l-0.2,0.2l-0.2,0.2L206,257.5z"/>
			<path class="st2" d="M202.8,249.8l-0.3,0.1l-0.3-0.1l-0.2-0.2l-0.2-0.2l-0.7-1.6l-0.1-0.3l0.1-0.3l0.2-0.2l0.2-0.2l3.3-1.4
				l0.3-0.1l0.3,0.1l0.2,0.2l0.2,0.2l0.7,1.6l0.1,0.3l-0.1,0.3l-0.2,0.2l-0.2,0.2L202.8,249.8z"/>
		</g>
		<g>
			<path class="st2" d="M185.5,115.4l-0.1,0.2l-0.2,0.2l-0.2,0.1l-0.2,0l-1.1-0.2l-0.2-0.1l-0.2-0.2l-0.1-0.2l0-0.2l0.2-1.5l0.1-0.2
				l0.2-0.2l0.2-0.1l0.2,0l1.1,0.2l0.2,0.1l0.2,0.2l0.1,0.2l0,0.2L185.5,115.4z"/>
			<path class="st2" d="M180.9,114.7l-0.1,0.2l-0.1,0.2l-0.2,0.1l-0.2,0l-1.1-0.2l-0.2-0.1l-0.2-0.1l-0.1-0.2l0-0.2l0.2-1.5l0.1-0.2
				l0.2-0.2l0.2-0.1l0.2,0l1.1,0.2l0.2,0.1l0.2,0.2l0.1,0.2l0,0.2L180.9,114.7z"/>
		</g>
		<g>
			<path class="st2" d="M99.6,188.6l0,0.3l-0.1,0.3l-0.2,0.2l-0.3,0.1l-2,0.3l-0.3,0l-0.3-0.1l-0.2-0.2l-0.1-0.3l-1.3-8l0-0.3
				l0.1-0.3l0.2-0.2l0.3-0.1l2-0.3l0.3,0l0.3,0.1l0.2,0.2l0.1,0.3L99.6,188.6z"/>
			<path class="st2" d="M83,191.2l0,0.3l-0.1,0.3l-0.2,0.2l-0.3,0.1l-2,0.3l-0.3,0l-0.3-0.1l-0.2-0.2l-0.1-0.3l-1.3-8l0-0.3l0.1-0.3
				l0.2-0.2l0.3-0.1l2-0.3l0.3,0l0.3,0.1l0.2,0.2l0.1,0.3L83,191.2z"/>
		</g>
		<g>
			<path class="st2" d="M127.4,135.6l0.1,0.2l0.1,0.2l0,0.2l-0.1,0.2l-0.7,0.9l-0.2,0.1l-0.2,0.1l-0.2,0l-0.2-0.1l-1.3-0.9l-0.2-0.2
				l-0.1-0.2l0-0.2l0.1-0.2l0.7-0.9l0.2-0.2l0.2-0.1l0.2,0l0.2,0.1L127.4,135.6z"/>
			<path class="st2" d="M124.7,139.4l0.2,0.2l0.1,0.2l0,0.2l-0.1,0.2l-0.7,0.9l-0.2,0.2l-0.2,0.1l-0.2,0l-0.2-0.1l-1.3-0.9l-0.1-0.2
				l-0.1-0.2l0-0.2l0.1-0.2l0.7-0.9l0.2-0.1l0.2-0.1l0.2,0l0.2,0.1L124.7,139.4z"/>
		</g>
		<g>
			<path class="st2" d="M216,138l0.1,0.1l0,0.2l0,0.2l-0.1,0.1l-3.3,3.3l-0.1,0.1l-0.2,0l-0.2,0l-0.1-0.1l-0.6-0.6l-0.1-0.1l0-0.2
				l0-0.2l0.1-0.1l3.3-3.3l0.1-0.1l0.2,0l0.2,0l0.1,0.1L216,138z"/>
			<path class="st2" d="M213.5,135.5l0.1,0.1l0,0.2l0,0.2l-0.1,0.1l-3.3,3.3l-0.1,0.1l-0.2,0l-0.2,0l-0.1-0.1l-0.6-0.6l-0.1-0.1
				l0-0.2l0-0.2l0.1-0.1l3.3-3.3l0.1-0.1l0.2,0l0.2,0l0.1,0.1L213.5,135.5z"/>
			<path class="st2" d="M210.9,133l0.1,0.1l0,0.2l0,0.2l-0.1,0.1l-3.3,3.3l-0.1,0.1l-0.2,0l-0.2,0l-0.1-0.1l-0.6-0.6l-0.1-0.1l0-0.2
				l0-0.2l0.1-0.1l3.3-3.3l0.1-0.1l0.2,0l0.2,0l0.1,0.1L210.9,133z"/>
			<path class="st2" d="M208.4,130.4l0.1,0.1l0,0.2l0,0.2l-0.1,0.1l-3.3,3.3l-0.1,0.1l-0.2,0l-0.2,0l-0.1-0.1l-0.6-0.6l-0.1-0.1
				l0-0.2l0-0.2l0.1-0.1l3.3-3.3l0.1-0.1l0.2,0l0.2,0l0.1,0.1L208.4,130.4z"/>
			<path class="st2" d="M198.5,140.3l0.1,0.1l0,0.2l0,0.2l-0.1,0.1l-3.3,3.3l-0.1,0.1l-0.2,0l-0.2,0l-0.1-0.1l-0.6-0.6l-0.1-0.1
				l0-0.2l0-0.2l0.1-0.1l3.3-3.3l0.1-0.1l0.2,0l0.2,0l0.1,0.1L198.5,140.3z"/>
			<path class="st2" d="M201,142.9l0.1,0.1l0,0.2l0,0.2l-0.1,0.1l-3.3,3.3l-0.1,0.1l-0.2,0l-0.2,0l-0.1-0.1l-0.6-0.6l-0.1-0.1l0-0.2
				l0-0.2l0.1-0.1l3.3-3.3l0.1-0.1l0.2,0l0.2,0l0.1,0.1L201,142.9z"/>
			<path class="st2" d="M203.6,145.4l0.1,0.1l0,0.2l0,0.2l-0.1,0.1l-3.3,3.3l-0.1,0.1l-0.2,0l-0.2,0l-0.1-0.1l-0.6-0.6l-0.1-0.1
				l0-0.2l0-0.2l0.1-0.1l3.3-3.3l0.1-0.1l0.2,0l0.2,0l0.1,0.1L203.6,145.4z"/>
			<path class="st2" d="M206.1,148l0.1,0.1l0,0.2l0,0.2l-0.1,0.1l-3.3,3.3l-0.1,0.1l-0.2,0l-0.2,0l-0.1-0.1l-0.6-0.6l-0.1-0.1l0-0.2
				l0-0.2l0.1-0.1l3.3-3.3l0.1-0.1l0.2,0l0.2,0l0.1,0.1L206.1,148z"/>
		</g>
		<g>
			<path class="st2" d="M157.2,99.6l-0.3,0l-0.3-0.1l-0.2-0.2l-0.1-0.3l-0.3-2l0-0.3l0.1-0.3l0.2-0.2l0.3-0.1l8-1.3l0.3,0l0.3,0.1
				l0.2,0.2l0.1,0.3l0.3,2l0,0.3l-0.1,0.3l-0.2,0.2l-0.3,0.1L157.2,99.6z"/>
			<path class="st2" d="M154.6,83l-0.3,0l-0.3-0.1l-0.2-0.2l-0.1-0.3l-0.3-2l0-0.3l0.1-0.3l0.2-0.2l0.3-0.1l8-1.3l0.3,0l0.3,0.1
				l0.2,0.2l0.1,0.3l0.3,2l0,0.3l-0.1,0.3l-0.2,0.2l-0.3,0.1L154.6,83z"/>
		</g>
		<g>
			<path class="st2" d="M136.5,256.1l-0.2-0.2l-0.2-0.2l-0.1-0.3l0.1-0.3l0.7-1.6l0.2-0.2l0.2-0.2l0.3-0.1l0.3,0.1l3.3,1.4l0.2,0.2
				l0.2,0.2l0.1,0.3l-0.1,0.3l-0.7,1.6l-0.2,0.2l-0.2,0.2l-0.3,0.1l-0.3-0.1L136.5,256.1z"/>
			<path class="st2" d="M139.7,248.4l-0.2-0.2l-0.2-0.2l-0.1-0.3l0.1-0.3l0.7-1.6l0.2-0.2l0.2-0.2l0.3-0.1l0.3,0.1l3.3,1.4l0.2,0.2
				l0.2,0.2l0.1,0.3l-0.1,0.3l-0.7,1.6l-0.2,0.2l-0.2,0.2l-0.3,0.1l-0.3-0.1L139.7,248.4z"/>
		</g>
		<g>
			<path class="st2" d="M169.5,42.8h-2.8V32.6h2.8V42.8z"/>
			<path class="st2" d="M174.3,42.8h-2.8V32.6h2.8V42.8z"/>
			<path class="st2" d="M179.1,42.8h-2.8V32.6h2.8V42.8z"/>
			<path class="st2" d="M179.1,75.1h-2.8V64.9h2.8V75.1z"/>
			<path class="st2" d="M174.3,75.1h-2.8V64.9h2.8V75.1z"/>
			<path class="st2" d="M169.5,75.1h-2.8V64.9h2.8V75.1z"/>
			<circle class="st3" cx="172.9" cy="53.9" r="8.4"/>
		</g>
		<g>
			<path class="st2" d="M166.1,235.9l0.2,0.1l0.1,0.1l0.1,0.2l0,0.2l-0.5,3.3l-0.1,0.2l-0.1,0.1l-0.2,0.1l-0.2,0l-0.8-0.1l-0.2-0.1
				l-0.1-0.1l-0.1-0.2l0-0.2l0.5-3.3l0.1-0.2l0.1-0.1l0.2-0.1l0.2,0L166.1,235.9z"/>
			<path class="st2" d="M160.8,235.1l0.2,0.1l0.1,0.1l0.1,0.2l0,0.2l-0.5,3.3l-0.1,0.2l-0.1,0.1l-0.2,0.1l-0.2,0l-0.8-0.1l-0.2-0.1
				l-0.1-0.1l-0.1-0.2l0-0.2l0.5-3.3l0.1-0.2l0.1-0.1l0.2-0.1l0.2,0L160.8,235.1z"/>
			<path class="st2" d="M162.6,240.7l0.2,0.1l0.1,0.1l0.1,0.2l0,0.2l-0.5,3.3l-0.1,0.2l-0.1,0.1l-0.2,0.1l-0.2,0l-0.8-0.1l-0.2-0.1
				l-0.1-0.1l-0.1-0.2l0-0.2l0.5-3.3l0.1-0.2l0.1-0.1l0.2-0.1l0.2,0L162.6,240.7z"/>
		</g>
		<g>
			<path class="st2" d="M176.2,303.1h2.8v10.2h-2.8V303.1z"/>
			<path class="st2" d="M171.4,303.1h2.8v10.2h-2.8V303.1z"/>
			<path class="st2" d="M166.5,303.1h2.8v10.2h-2.8V303.1z"/>
			<path class="st2" d="M166.5,270.7h2.8v10.2h-2.8V270.7z"/>
			<path class="st2" d="M171.4,270.7h2.8v10.2h-2.8V270.7z"/>
			<path class="st2" d="M176.2,270.7h2.8v10.2h-2.8V270.7z"/>
			<circle class="st3" cx="172.8" cy="292" r="8.4"/>
		</g>
		<g>
			<path class="st2" d="M109.9,132.2l-0.2,0.2l-0.3,0.1l-0.3,0l-0.3-0.1l-1.7-1.2l-0.2-0.2l-0.1-0.3l0-0.3l0.1-0.3l4.7-6.5l0.2-0.2
				l0.3-0.1l0.3,0l0.3,0.1l1.7,1.2l0.2,0.2l0.1,0.3l0,0.3l-0.1,0.3L109.9,132.2z"/>
			<path class="st2" d="M96.4,122.3l-0.2,0.2l-0.3,0.1l-0.3,0l-0.3-0.1l-1.7-1.2l-0.2-0.2l-0.1-0.3l0-0.3l0.1-0.3l4.7-6.5l0.2-0.2
				l0.3-0.1l0.3,0l0.3,0.1l1.7,1.2l0.2,0.2l0.1,0.3l0,0.3l-0.1,0.3L96.4,122.3z"/>
		</g>
		<g>
			<path class="st2" d="M229.4,191l-0.1,0.2l-0.2,0.2l-0.3,0.1l-0.3,0l-1.4-0.4l-0.2-0.1l-0.2-0.2l-0.1-0.3l0-0.3l0.7-2.4l0.1-0.2
				l0.2-0.2l0.3-0.1l0.3,0l1.4,0.4l0.2,0.1l0.2,0.2l0.1,0.3l0,0.3L229.4,191z"/>
			<path class="st2" d="M224.5,189.5l-0.1,0.2l-0.2,0.2l-0.3,0.1l-0.3,0l-1.4-0.4l-0.2-0.1l-0.2-0.2l-0.1-0.3l0-0.3l0.7-2.4l0.1-0.2
				l0.2-0.2l0.3-0.1l0.3,0l1.4,0.4l0.2,0.1l0.2,0.2l0.1,0.3l0,0.3L224.5,189.5z"/>
		</g>
		<g>
			<path class="st2" d="M247.8,168.9l0.1-0.3l0.2-0.2l0.2-0.2l0.3-0.1h2.1l0.3,0.1l0.2,0.2l0.2,0.2l0.1,0.3v8.1l-0.1,0.3l-0.2,0.2
				l-0.2,0.2l-0.3,0.1h-2.1l-0.3-0.1l-0.2-0.2l-0.2-0.2l-0.1-0.3V168.9z"/>
			<path class="st2" d="M264.6,168.9l0.1-0.3l0.2-0.2l0.2-0.2l0.3-0.1h2.1l0.3,0.1l0.2,0.2l0.2,0.2l0.1,0.3v8.1l-0.1,0.3l-0.2,0.2
				l-0.2,0.2l-0.3,0.1h-2.1l-0.3-0.1l-0.2-0.2l-0.2-0.2l-0.1-0.3V168.9z"/>
		</g>
		<g>
			<path class="st2" d="M262.4,78.5l-2-2l7.2-7.2l2,2L262.4,78.5z"/>
			<path class="st2" d="M265.8,81.9l-2-2l7.2-7.2l2,2L265.8,81.9z"/>
			<path class="st2" d="M269.2,85.4l-2-2l7.2-7.2l2,2L269.2,85.4z"/>
			<path class="st2" d="M246.3,108.2l-2-2l7.2-7.2l2,2L246.3,108.2z"/>
			<path class="st2" d="M242.9,104.8l-2-2l7.2-7.2l2,2L242.9,104.8z"/>
			<path class="st2" d="M239.5,101.4l-2-2l7.2-7.2l2,2L239.5,101.4z"/>
			<circle class="st3" cx="257" cy="88.8" r="8.4"/>
		</g>
		<g>
			<path class="st2" d="M165.2,247.5l0.3,0.1l0.2,0.2l0.1,0.3l0,0.3l-0.3,2l-0.1,0.3l-0.2,0.2l-0.3,0.1l-0.3,0l-8-1.3l-0.3-0.1
				l-0.2-0.2l-0.1-0.3l0-0.3l0.3-2l0.1-0.3l0.2-0.2l0.3-0.1l0.3,0L165.2,247.5z"/>
			<path class="st2" d="M162.6,264.1l0.3,0.1l0.2,0.2l0.1,0.3l0,0.3l-0.3,2l-0.1,0.3l-0.2,0.2l-0.3,0.1l-0.3,0l-8-1.3l-0.3-0.1
				l-0.2-0.2l-0.1-0.3l0-0.3l0.3-2l0.1-0.3l0.2-0.2l0.3-0.1l0.3,0L162.6,264.1z"/>
		</g>
		<g>
			<path class="st2" d="M139.8,88.4l0.3-0.1l0.3,0.1l0.2,0.2l0.2,0.2l0.7,1.6l0.1,0.3l-0.1,0.3l-0.2,0.2l-0.2,0.2l-3.3,1.4l-0.3,0.1
				l-0.3-0.1l-0.2-0.2l-0.2-0.2l-0.7-1.6l-0.1-0.3l0.1-0.3l0.2-0.2l0.2-0.2L139.8,88.4z"/>
			<path class="st2" d="M143,96l0.3-0.1l0.3,0.1l0.2,0.2l0.2,0.2l0.7,1.6l0.1,0.3l-0.1,0.3l-0.2,0.2l-0.2,0.2l-3.3,1.4l-0.3,0.1
				l-0.3-0.1l-0.2-0.2l-0.2-0.2l-0.7-1.6l-0.1-0.3l0.1-0.3l0.2-0.2l0.2-0.2L143,96z"/>
		</g>
		<g>
			<path class="st2" d="M188.6,246.3l0.3,0l0.3,0.1l0.2,0.2l0.1,0.3l0.3,2l0,0.3l-0.1,0.3l-0.2,0.2l-0.3,0.1l-8,1.3l-0.3,0l-0.3-0.1
				l-0.2-0.2l-0.1-0.3l-0.3-2l0-0.3l0.1-0.3l0.2-0.2l0.3-0.1L188.6,246.3z"/>
			<path class="st2" d="M191.2,262.9l0.3,0l0.3,0.1l0.2,0.2l0.1,0.3l0.3,2l0,0.3l-0.1,0.3l-0.2,0.2l-0.3,0.1l-8,1.3l-0.3,0l-0.3-0.1
				l-0.2-0.2L183,267l-0.3-2l0-0.3l0.1-0.3l0.2-0.2l0.3-0.1L191.2,262.9z"/>
		</g>
		<g>
			<path class="st2" d="M98,177l-0.1,0.3l-0.2,0.2l-0.2,0.2l-0.3,0.1h-2.1l-0.3-0.1l-0.2-0.2l-0.2-0.2l-0.1-0.3v-8.1l0.1-0.3
				l0.2-0.2l0.2-0.2l0.3-0.1h2.1l0.3,0.1l0.2,0.2l0.2,0.2l0.1,0.3V177z"/>
			<path class="st2" d="M81.2,177l-0.1,0.3l-0.2,0.2l-0.2,0.2l-0.3,0.1h-2.1l-0.3-0.1l-0.2-0.2l-0.2-0.2l-0.1-0.3v-8.1l0.1-0.3
				l0.2-0.2l0.2-0.2l0.3-0.1h2.1l0.3,0.1l0.2,0.2l0.2,0.2l0.1,0.3V177z"/>
		</g>
		<g>
			<path class="st2" d="M154.8,229.4l-0.2-0.1l-0.2-0.2l-0.1-0.3l0-0.3l0.4-1.4l0.1-0.2l0.2-0.2l0.3-0.1l0.3,0l2.4,0.7l0.2,0.1
				l0.2,0.2l0.1,0.3l0,0.3l-0.4,1.4l-0.1,0.2l-0.2,0.2l-0.3,0.1l-0.3,0L154.8,229.4z"/>
			<path class="st2" d="M156.3,224.5l-0.2-0.1l-0.2-0.2l-0.1-0.3l0-0.3l0.4-1.4l0.1-0.2l0.2-0.2l0.3-0.1l0.3,0l2.4,0.7l0.2,0.1
				l0.2,0.2l0.1,0.3l0,0.3l-0.4,1.4l-0.1,0.2l-0.2,0.2l-0.3,0.1l-0.3,0L156.3,224.5z"/>
		</g>
		<g>
			<path class="st2" d="M126,130.4l-0.1,0.1l-0.2,0l-0.2,0l-0.1-0.1L123,128l-0.1-0.1l0-0.2l0-0.2l0.1-0.1l0.6-0.6l0.1-0.1l0.2,0
				l0.2,0l0.1,0.1l2.4,2.4l0.1,0.1l0,0.2l0,0.2l-0.1,0.1L126,130.4z"/>
			<path class="st2" d="M129.8,126.6l-0.1,0.1l-0.2,0l-0.2,0l-0.1-0.1l-2.4-2.4l-0.1-0.1l0-0.2l0-0.2l0.1-0.1l0.6-0.6l0.1-0.1l0.2,0
				l0.2,0l0.1,0.1l2.4,2.4l0.1,0.1l0,0.2l0,0.2l-0.1,0.1L129.8,126.6z"/>
			<path class="st2" d="M124.1,124.7l-0.1,0.1l-0.2,0l-0.2,0l-0.1-0.1l-2.4-2.4l-0.1-0.1l0-0.2l0-0.2l0.1-0.1l0.6-0.6l0.1-0.1l0.2,0
				l0.2,0l0.1,0.1l2.4,2.4l0.1,0.1l0,0.2l0,0.2l-0.1,0.1L124.1,124.7z"/>
		</g>
		<g>
			<path class="st2" d="M218.5,196.1l0.2-0.2l0.2-0.1l0.3,0l0.3,0.1l1.2,0.7l0.2,0.2l0.1,0.2l0,0.3l-0.1,0.3l-1.3,2.4l-0.2,0.2
				l-0.2,0.1l-0.3,0l-0.3-0.1l-1.2-0.7l-0.2-0.2l-0.1-0.2l0-0.3l0.1-0.3L218.5,196.1z"/>
			<path class="st2" d="M223.3,198.7l0.2-0.2l0.2-0.1l0.3,0l0.3,0.1l1.2,0.7l0.2,0.2l0.1,0.2l0,0.3l-0.1,0.3l-1.3,2.4l-0.2,0.2
				l-0.2,0.1l-0.3,0l-0.3-0.1l-1.2-0.7l-0.2-0.2l-0.1-0.2l0-0.3l0.1-0.3L223.3,198.7z"/>
		</g>
		<g>
			<path class="st2" d="M78.4,83.4l-2,2l-7.2-7.2l2-2L78.4,83.4z"/>
			<path class="st2" d="M81.8,79.9l-2,2l-7.2-7.2l2-2L81.8,79.9z"/>
			<path class="st2" d="M85.2,76.5l-2,2L76,71.3l2-2L85.2,76.5z"/>
			<path class="st2" d="M108,99.4l-2,2l-7.2-7.2l2-2L108,99.4z"/>
			<path class="st2" d="M104.6,102.8l-2,2l-7.2-7.2l2-2L104.6,102.8z"/>
			<path class="st2" d="M101.2,106.2l-2,2L92,101l2-2L101.2,106.2z"/>
			<circle class="st3" cx="88.6" cy="88.8" r="8.4"/>
		</g>
	</g>
	<rect x="2.8" y="2.8" class="st4" width="340.2" height="340.2"/>
</g>
<g id="Locator">
	<text transform="matrix(1 0 0 1 118.442 337.8151)" class="st5 st6">Chandelier PCB Rev A</text>
	<rect x="2.8" y="2.8" class="st7" width="340.2" height="340.2"/>
	<g>
		<path class="st7" d="M109.2,304.5c0.3,5.1,4.6,9,9.7,8.7c2.1-0.1,4.1-0.9,5.7-2.3"/>
		<path class="st7" d="M304,236.5c5.1-0.3,9-4.6,8.7-9.7c-0.1-2.1-0.9-4.1-2.3-5.7"/>
		<path class="st7" d="M132.6,309c-2.8-0.8-5.9-0.1-8.1,1.8"/>
		<path class="st7" d="M304,236.5c-2.9,0.2-5.6,1.8-7,4.4"/>
		<path class="st7" d="M236,41.6c0.2,2.9,1.8,5.6,4.4,7"/>
		<path class="st7" d="M109.2,304.5c-0.2-2.9-1.8-5.6-4.4-7"/>
		<path class="st7" d="M212.6,37.1c2.8,0.8,5.9,0.1,8.1-1.8"/>
		<path class="st7" d="M36.6,133c0.8-2.8,0.1-5.9-1.8-8.1"/>
		<path class="st7" d="M236,41.6c-0.3-5.1-4.6-9-9.7-8.7c-2.1,0.1-4.1,0.9-5.7,2.3"/>
		<path class="st7" d="M41.2,109.6c-5.1,0.3-9,4.6-8.7,9.7c0.1,2.1,0.9,4.1,2.3,5.7"/>
		<path class="st7" d="M36.6,133c-18.8,64,9.5,132.5,68.1,164.4"/>
		<path class="st7" d="M41.2,109.6c2.9-0.2,5.6-1.8,7-4.4"/>
		<path class="st7" d="M308.6,213c18.8-64-9.5-132.5-68.1-164.4"/>
		<path class="st7" d="M132.6,309c64,18.8,132.5-9.5,164.4-68.1"/>
		<path class="st7" d="M308.6,213c-0.8,2.8-0.1,5.9,1.8,8.1"/>
		<path class="st7" d="M212.6,37.1c-64-18.8-132.5,9.5-164.4,68.1"/>
	</g>
</g>
</svg>
